<?xml version="1.0" encoding="UTF-8" standalone="no"?>
<!DOCTYPE svg PUBLIC "-//W3C//DTD SVG 1.1//EN"
 "http://www.w3.org/Graphics/SVG/1.1/DTD/svg11.dtd">
<!-- Generated by graphviz version 6.0.2 (20221011.1828)
 -->
<!-- Title: src/LocalSportsapp Pages: 1 -->
<svg width="264pt" height="149pt"
 viewBox="0.00 0.00 264.00 149.00" xmlns="http://www.w3.org/2000/svg" xmlns:xlink="http://www.w3.org/1999/xlink">
<g id="graph0" class="graph" transform="scale(1 1) rotate(0) translate(4 145)">
<title>src/LocalSportsapp</title>
<g id="clust1" class="cluster">
<title>clusterdir_68267d1309a1af8e8297ef4c3efbcdba</title>
<g id="a_clust1"><a xlink:href="dir_68267d1309a1af8e8297ef4c3efbcdba.html" target="_top" xlink:title="src">
<polygon fill="#edf0f7" stroke="#404040" stroke-dasharray="5,2" points="8,-8 8,-133 248,-133 248,-8 8,-8"/>
<text text-anchor="middle" x="128" y="-121" font-family="Helvetica,sans-Serif" font-size="10.00">src</text>
</a>
</g>
</g>
<g id="clust2" class="cluster">
<title>clusterdir_b994550562b4ecbede8b48d55a19e91b</title>
<g id="a_clust2"><a xlink:href="dir_b994550562b4ecbede8b48d55a19e91b.html" target="_top">
<polygon fill="#edf0f7" stroke="#404040" stroke-width="2" points="16,-16 16,-106 164,-106 164,-16 16,-16"/>
</a>
</g>
</g>
<!-- dir_991e0a5c7a2b28a83e935c9c0ca3828a -->
<g id="node1" class="node">
<title>dir_991e0a5c7a2b28a83e935c9c0ca3828a</title>
<g id="a_node1"><a xlink:href="dir_991e0a5c7a2b28a83e935c9c0ca3828a.html" target="_top" xlink:title="LocalSports">
<polygon fill="#a2b4d6" stroke="red" points="240,-43 172,-43 172,-24 240,-24 240,-43"/>
<text text-anchor="middle" x="206" y="-31" font-family="Helvetica,sans-Serif" font-size="10.00">LocalSports</text>
</a>
</g>
</g>
<!-- dir_b994550562b4ecbede8b48d55a19e91b -->
<g id="node2" class="node">
<title>dir_b994550562b4ecbede8b48d55a19e91b</title>
<text text-anchor="middle" x="114" y="-86" font-family="Helvetica,sans-Serif" font-size="10.00">LocalSportsapp</text>
</g>
<!-- dir_eeb2f57f068ff009d14363346e85d73c -->
<g id="node3" class="node">
<title>dir_eeb2f57f068ff009d14363346e85d73c</title>
<g id="a_node3"><a xlink:href="dir_eeb2f57f068ff009d14363346e85d73c.html" target="_top" xlink:title="header">
<polygon fill="#a2b4d6" stroke="#404040" points="70,-43 24,-43 24,-24 70,-24 70,-43"/>
<text text-anchor="middle" x="47" y="-31" font-family="Helvetica,sans-Serif" font-size="10.00">header</text>
</a>
</g>
</g>
<!-- dir_a210ec4a9d6cdb1157380a0902d2cf9a -->
<g id="node4" class="node">
<title>dir_a210ec4a9d6cdb1157380a0902d2cf9a</title>
<g id="a_node4"><a xlink:href="dir_a210ec4a9d6cdb1157380a0902d2cf9a.html" target="_top" xlink:title="src">
<polygon fill="#a2b4d6" stroke="#404040" points="54,-98 24,-98 24,-79 54,-79 54,-98"/>
<text text-anchor="middle" x="39" y="-86" font-family="Helvetica,sans-Serif" font-size="10.00">src</text>
</a>
</g>
</g>
<!-- dir_a210ec4a9d6cdb1157380a0902d2cf9a&#45;&gt;dir_991e0a5c7a2b28a83e935c9c0ca3828a -->
<g id="edge1" class="edge">
<title>dir_a210ec4a9d6cdb1157380a0902d2cf9a&#45;&gt;dir_991e0a5c7a2b28a83e935c9c0ca3828a</title>
<path fill="none" stroke="#63b8ff" d="M54.2,-82.02C57.12,-80.99 60.15,-79.95 63,-79 98.31,-67.26 138.84,-54.74 167.71,-45.98"/>
<polygon fill="#63b8ff" stroke="#63b8ff" points="168.85,-49.29 177.41,-43.04 166.82,-42.59 168.85,-49.29"/>
<g id="a_edge1&#45;headlabel"><a xlink:href="dir_000007_000003.html" target="_top" xlink:title="3">
<text text-anchor="middle" x="166.23" y="-50.55" font-family="Helvetica,sans-Serif" font-size="10.00" fill="#63b8ff">3</text>
</a>
</g>
</g>
<!-- dir_a210ec4a9d6cdb1157380a0902d2cf9a&#45;&gt;dir_eeb2f57f068ff009d14363346e85d73c -->
<g id="edge2" class="edge">
<title>dir_a210ec4a9d6cdb1157380a0902d2cf9a&#45;&gt;dir_eeb2f57f068ff009d14363346e85d73c</title>
<path fill="none" stroke="#63b8ff" d="M40.32,-78.75C41.37,-71.8 42.87,-61.85 44.19,-53.13"/>
<polygon fill="#63b8ff" stroke="#63b8ff" points="47.67,-53.5 45.7,-43.09 40.75,-52.45 47.67,-53.5"/>
<g id="a_edge2&#45;headlabel"><a xlink:href="dir_000007_000001.html" target="_top" xlink:title="1">
<text text-anchor="middle" x="49.94" y="-54.98" font-family="Helvetica,sans-Serif" font-size="10.00" fill="#63b8ff">1</text>
</a>
</g>
</g>
</g>
</svg>
