<?xml version="1.0" encoding="UTF-8" standalone="no"?>
<!DOCTYPE svg PUBLIC "-//W3C//DTD SVG 1.1//EN"
 "http://www.w3.org/Graphics/SVG/1.1/DTD/svg11.dtd">
<!-- Generated by graphviz version 6.0.2 (20221011.1828)
 -->
<!-- Title:  Ahmed/Desktop/cen429&#45;2025&#45;2026&#45;5&#45;muhammedbesir&#45;velioglu&#45;cpp/src/LocalSportsapp/src/localsportsapp.cpp Pages: 1 -->
<!--zoomable 170 -->

<svg id="main" version="1.1" xmlns="http://www.w3.org/2000/svg" xmlns:xlink="http://www.w3.org/1999/xlink" xml:space="preserve" onload="init(evt)">
<style type="text/css"><![CDATA[
.node, .edge {opacity: 0.7;}
.node.selected, .edge.selected {opacity: 1;}
.edge:hover path { stroke: red; }
.edge:hover polygon { stroke: red; fill: red; }
]]></style>

<defs>
  <circle id="rim" cx="0" cy="0" r="7"/>
  <circle id="rim2" cx="0" cy="0" r="3.5"/>
  <g id="zoomPlus">
    <use xlink:href="#rim" fill="#404040"><set attributeName="fill" to="#808080" begin="zoomplus.mouseover" end="zoomplus.mouseout"/></use>
    <path d="M-4,0h8M0,-4v8" fill="none" stroke="white" stroke-width="1.5" pointer-events="none"/>
  </g>
  <g id="zoomMin">
    <use xlink:href="#rim" fill="#404040"><set attributeName="fill" to="#808080" begin="zoomminus.mouseover" end="zoomminus.mouseout"/></use>
    <path d="M-4,0h8" fill="none" stroke="white" stroke-width="1.5" pointer-events="none"/>
  </g>
  <g id="arrowUp" transform="translate(30 24)">
    <use xlink:href="#rim"/>
    <path pointer-events="none" fill="none" stroke="white" stroke-width="1.5" d="M0,-3.0v7 M-2.5,-0.5L0,-3.0L2.5,-0.5"/>
  </g>
  <g id="arrowRight" transform="rotate(90) translate(36 -43)">
    <use xlink:href="#rim"/>
    <path pointer-events="none" fill="none" stroke="white" stroke-width="1.5" d="M0,-3.0v7 M-2.5,-0.5L0,-3.0L2.5,-0.5"/>
  </g>
  <g id="arrowDown" transform="rotate(180) translate(-30 -48)">
    <use xlink:href="#rim"/>
    <path pointer-events="none" fill="none" stroke="white" stroke-width="1.5" d="M0,-3.0v7 M-2.5,-0.5L0,-3.0L2.5,-0.5"/>
  </g>
  <g id="arrowLeft" transform="rotate(270) translate(-36 17)">
    <use xlink:href="#rim"/>
    <path pointer-events="none" fill="none" stroke="white" stroke-width="1.5" d="M0,-3.0v7 M-2.5,-0.5L0,-3.0L2.5,-0.5"/>
  </g>
  <g id="resetDef">
    <use xlink:href="#rim2" fill="#404040"><set attributeName="fill" to="#808080" begin="reset.mouseover" end="reset.mouseout"/></use>
  </g>
</defs>
<script type="application/ecmascript">
var viewWidth = 718;
var viewHeight = 170;
var sectionId = 'dynsection-0';
</script>
<script type="application/ecmascript" xlink:href="svg.min.js"/>
<svg id="graph" class="graph">
<g id="viewport">
<title> Ahmed/Desktop/cen429&#45;2025&#45;2026&#45;5&#45;muhammedbesir&#45;velioglu&#45;cpp/src/LocalSportsapp/src/localsportsapp.cpp</title>
<!-- Node1 -->
<g id="Node000001" class="node">
<title>Node1</title>
<g id="a_Node000001"><a xlink:title=" ">
<polygon fill="#999999" stroke="#666666" points="475.5,-162 318.5,-162 318.5,-110 475.5,-110 475.5,-162"/>
<text text-anchor="start" x="326.5" y="-150" font-family="Helvetica,sans-Serif" font-size="10.00"> Ahmed/Desktop/cen429</text>
<text text-anchor="start" x="326.5" y="-139" font-family="Helvetica,sans-Serif" font-size="10.00">&#45;2025&#45;2026&#45;5&#45;muhammedbesir</text>
<text text-anchor="start" x="326.5" y="-128" font-family="Helvetica,sans-Serif" font-size="10.00">&#45;velioglu&#45;cpp/src/LocalSportsapp</text>
<text text-anchor="middle" x="397" y="-117" font-family="Helvetica,sans-Serif" font-size="10.00">/src/localsportsapp.cpp</text>
</a>
</g>
</g>
<!-- Node2 -->
<g id="Node000002" class="node">
<title>Node2</title>
<g id="a_Node000002"><a xlink:href="localsportsapp_8h.html" target="_top" xlink:title=" ">
<polygon fill="white" stroke="#666666" points="88,-74 0,-74 0,-55 88,-55 88,-74"/>
<text text-anchor="middle" x="44" y="-62" font-family="Helvetica,sans-Serif" font-size="10.00">localsportsapp.h</text>
</a>
</g>
</g>
<!-- Node1&#45;&gt;Node2 -->
<g id="edge1_Node000001_Node000002" class="edge">
<title>Node1&#45;&gt;Node2</title>
<g id="a_edge1_Node000001_Node000002"><a xlink:title=" ">
<path fill="none" stroke="#63b8ff" d="M318.22,-119.49C250.99,-106.25 156.14,-87.58 97.44,-76.02"/>
<polygon fill="#63b8ff" stroke="#63b8ff" points="98.11,-72.59 87.63,-74.09 96.76,-79.46 98.11,-72.59"/>
</a>
</g>
</g>
<!-- Node3 -->
<g id="Node000003" class="node">
<title>Node3</title>
<g id="a_Node000003"><a xlink:href="localsports_8h.html" target="_top" xlink:title=" ">
<polygon fill="white" stroke="#666666" points="178,-74 106,-74 106,-55 178,-55 178,-74"/>
<text text-anchor="middle" x="142" y="-62" font-family="Helvetica,sans-Serif" font-size="10.00">localsports.h</text>
</a>
</g>
</g>
<!-- Node1&#45;&gt;Node3 -->
<g id="edge2_Node000001_Node000003" class="edge">
<title>Node1&#45;&gt;Node3</title>
<g id="a_edge2_Node000001_Node000003"><a xlink:title=" ">
<path fill="none" stroke="#63b8ff" d="M318.41,-113.58C273.73,-101.4 219.61,-86.65 183.2,-76.73"/>
<polygon fill="#63b8ff" stroke="#63b8ff" points="183.99,-73.32 173.42,-74.06 182.15,-80.07 183.99,-73.32"/>
</a>
</g>
</g>
<!-- Node5 -->
<g id="Node000005" class="node">
<title>Node5</title>
<g id="a_Node000005"><a xlink:href="rasp_8h.html" target="_top" xlink:title=" ">
<polygon fill="white" stroke="#666666" points="386,-74 342,-74 342,-55 386,-55 386,-74"/>
<text text-anchor="middle" x="364" y="-62" font-family="Helvetica,sans-Serif" font-size="10.00">rasp.h</text>
</a>
</g>
</g>
<!-- Node1&#45;&gt;Node5 -->
<g id="edge4_Node000001_Node000005" class="edge">
<title>Node1&#45;&gt;Node5</title>
<g id="a_edge4_Node000001_Node000005"><a xlink:title=" ">
<path fill="none" stroke="#63b8ff" d="M385.09,-109.91C380.93,-101.16 376.36,-91.52 372.53,-83.47"/>
<polygon fill="#63b8ff" stroke="#63b8ff" points="375.63,-81.83 368.18,-74.3 369.31,-84.84 375.63,-81.83"/>
</a>
</g>
</g>
<!-- Node6 -->
<g id="Node000006" class="node">
<title>Node6</title>
<g id="a_Node000006"><a xlink:title=" ">
<polygon fill="#e0e0e0" stroke="#999999" points="299.5,-19 258.5,-19 258.5,0 299.5,0 299.5,-19"/>
<text text-anchor="middle" x="279" y="-7" font-family="Helvetica,sans-Serif" font-size="10.00">string</text>
</a>
</g>
</g>
<!-- Node1&#45;&gt;Node6 -->
<g id="edge12_Node000001_Node000006" class="edge">
<title>Node1&#45;&gt;Node6</title>
<g id="a_edge12_Node000001_Node000006"><a xlink:title=" ">
<path fill="none" stroke="#63b8ff" d="M318.41,-127.26C283.83,-119.49 246.3,-104.15 225,-74 212.26,-55.96 233.9,-36.86 253.46,-24.38"/>
<polygon fill="#63b8ff" stroke="#63b8ff" points="255.41,-27.29 262.17,-19.13 251.8,-21.29 255.41,-27.29"/>
</a>
</g>
</g>
<!-- Node9 -->
<g id="Node000009" class="node">
<title>Node9</title>
<g id="a_Node000009"><a xlink:href="security__config_8h.html" target="_top" xlink:title=" ">
<polygon fill="white" stroke="#666666" points="324,-74 234,-74 234,-55 324,-55 324,-74"/>
<text text-anchor="middle" x="279" y="-62" font-family="Helvetica,sans-Serif" font-size="10.00">security_config.h</text>
</a>
</g>
</g>
<!-- Node1&#45;&gt;Node9 -->
<g id="edge9_Node000001_Node000009" class="edge">
<title>Node1&#45;&gt;Node9</title>
<g id="a_edge9_Node000001_Node000009"><a xlink:title=" ">
<path fill="none" stroke="#63b8ff" d="M354.4,-109.91C336.96,-99.64 317.45,-88.15 302.64,-79.43"/>
<polygon fill="#63b8ff" stroke="#63b8ff" points="304.05,-76.19 293.66,-74.14 300.5,-82.23 304.05,-76.19"/>
</a>
</g>
</g>
<!-- Node10 -->
<g id="Node000010" class="node">
<title>Node10</title>
<g id="a_Node000010"><a xlink:title=" ">
<polygon fill="#e0e0e0" stroke="#999999" points="458,-74 404,-74 404,-55 458,-55 458,-74"/>
<text text-anchor="middle" x="431" y="-62" font-family="Helvetica,sans-Serif" font-size="10.00">iostream</text>
</a>
</g>
</g>
<!-- Node1&#45;&gt;Node10 -->
<g id="edge11_Node000001_Node000010" class="edge">
<title>Node1&#45;&gt;Node10</title>
<g id="a_edge11_Node000001_Node000010"><a xlink:title=" ">
<path fill="none" stroke="#63b8ff" d="M409.27,-109.91C413.55,-101.16 418.27,-91.52 422.21,-83.47"/>
<polygon fill="#63b8ff" stroke="#63b8ff" points="425.44,-84.82 426.69,-74.3 419.16,-81.75 425.44,-84.82"/>
</a>
</g>
</g>
<!-- Node11 -->
<g id="Node000011" class="node">
<title>Node11</title>
<g id="a_Node000011"><a xlink:title=" ">
<polygon fill="#e0e0e0" stroke="#999999" points="526,-74 476,-74 476,-55 526,-55 526,-74"/>
<text text-anchor="middle" x="501" y="-62" font-family="Helvetica,sans-Serif" font-size="10.00">iomanip</text>
</a>
</g>
</g>
<!-- Node1&#45;&gt;Node11 -->
<g id="edge13_Node000001_Node000011" class="edge">
<title>Node1&#45;&gt;Node11</title>
<g id="a_edge13_Node000001_Node000011"><a xlink:title=" ">
<path fill="none" stroke="#63b8ff" d="M434.55,-109.91C449.53,-99.9 466.25,-88.72 479.17,-80.09"/>
<polygon fill="#63b8ff" stroke="#63b8ff" points="481.46,-82.77 487.83,-74.3 477.57,-76.95 481.46,-82.77"/>
</a>
</g>
</g>
<!-- Node12 -->
<g id="Node000012" class="node">
<title>Node12</title>
<g id="a_Node000012"><a xlink:title=" ">
<polygon fill="#e0e0e0" stroke="#999999" points="584,-74 544,-74 544,-55 584,-55 584,-74"/>
<text text-anchor="middle" x="564" y="-62" font-family="Helvetica,sans-Serif" font-size="10.00">limits</text>
</a>
</g>
</g>
<!-- Node1&#45;&gt;Node12 -->
<g id="edge14_Node000001_Node000012" class="edge">
<title>Node1&#45;&gt;Node12</title>
<g id="a_edge14_Node000001_Node000012"><a xlink:title=" ">
<path fill="none" stroke="#63b8ff" d="M457.29,-109.91C483.42,-99.03 512.85,-86.79 534.17,-77.91"/>
<polygon fill="#63b8ff" stroke="#63b8ff" points="535.76,-81.04 543.65,-73.97 533.07,-74.58 535.76,-81.04"/>
</a>
</g>
</g>
<!-- Node13 -->
<g id="Node000013" class="node">
<title>Node13</title>
<g id="a_Node000013"><a xlink:title=" ">
<polygon fill="#e0e0e0" stroke="#999999" points="646,-74 602,-74 602,-55 646,-55 646,-74"/>
<text text-anchor="middle" x="624" y="-62" font-family="Helvetica,sans-Serif" font-size="10.00">thread</text>
</a>
</g>
</g>
<!-- Node1&#45;&gt;Node13 -->
<g id="edge15_Node000001_Node000013" class="edge">
<title>Node1&#45;&gt;Node13</title>
<g id="a_edge15_Node000001_Node000013"><a xlink:title=" ">
<path fill="none" stroke="#63b8ff" d="M475.76,-110.89C515.62,-98.68 561.81,-84.54 591.9,-75.33"/>
<polygon fill="#63b8ff" stroke="#63b8ff" points="593.29,-78.56 601.83,-72.29 591.24,-71.87 593.29,-78.56"/>
</a>
</g>
</g>
<!-- Node14 -->
<g id="Node000014" class="node">
<title>Node14</title>
<g id="a_Node000014"><a xlink:title=" ">
<polygon fill="#e0e0e0" stroke="#999999" points="710,-74 664,-74 664,-55 710,-55 710,-74"/>
<text text-anchor="middle" x="687" y="-62" font-family="Helvetica,sans-Serif" font-size="10.00">chrono</text>
</a>
</g>
</g>
<!-- Node1&#45;&gt;Node14 -->
<g id="edge16_Node000001_Node000014" class="edge">
<title>Node1&#45;&gt;Node14</title>
<g id="a_edge16_Node000001_Node000014"><a xlink:title=" ">
<path fill="none" stroke="#63b8ff" d="M475.61,-117C524.29,-105.72 588.34,-90.63 653.85,-74.24"/>
<polygon fill="#63b8ff" stroke="#63b8ff" points="655.1,-77.53 663.95,-71.7 653.4,-70.74 655.1,-77.53"/>
</a>
</g>
</g>
<!-- Node4 -->
<g id="Node000004" class="node">
<title>Node4</title>
<g id="a_Node000004"><a xlink:title=" ">
<polygon fill="#e0e0e0" stroke="#999999" points="203,-19 157,-19 157,0 203,0 203,-19"/>
<text text-anchor="middle" x="180" y="-7" font-family="Helvetica,sans-Serif" font-size="10.00">cstdint</text>
</a>
</g>
</g>
<!-- Node3&#45;&gt;Node4 -->
<g id="edge3_Node000003_Node000004" class="edge">
<title>Node3&#45;&gt;Node4</title>
<g id="a_edge3_Node000003_Node000004"><a xlink:title=" ">
<path fill="none" stroke="#63b8ff" d="M148.27,-54.75C153.59,-47.34 161.36,-36.5 167.88,-27.41"/>
<polygon fill="#63b8ff" stroke="#63b8ff" points="170.86,-29.26 173.84,-19.09 165.17,-25.18 170.86,-29.26"/>
</a>
</g>
</g>
<!-- Node5&#45;&gt;Node4 -->
<g id="edge6_Node000005_Node000004" class="edge">
<title>Node5&#45;&gt;Node4</title>
<g id="a_edge6_Node000005_Node000004"><a xlink:title=" ">
<path fill="none" stroke="#63b8ff" d="M341.81,-57.11C309.74,-47.87 250.23,-30.73 213.01,-20.01"/>
<polygon fill="#63b8ff" stroke="#63b8ff" points="213.72,-16.57 203.14,-17.17 211.78,-23.3 213.72,-16.57"/>
</a>
</g>
</g>
<!-- Node5&#45;&gt;Node6 -->
<g id="edge5_Node000005_Node000006" class="edge">
<title>Node5&#45;&gt;Node6</title>
<g id="a_edge5_Node000005_Node000006"><a xlink:title=" ">
<path fill="none" stroke="#63b8ff" d="M350.34,-54.98C337.16,-46.77 316.97,-34.18 301.43,-24.49"/>
<polygon fill="#63b8ff" stroke="#63b8ff" points="303.24,-21.49 292.91,-19.17 299.54,-27.43 303.24,-21.49"/>
</a>
</g>
</g>
<!-- Node7 -->
<g id="Node000007" class="node">
<title>Node7</title>
<g id="a_Node000007"><a xlink:title=" ">
<polygon fill="#e0e0e0" stroke="#999999" points="384,-19 326,-19 326,0 384,0 384,-19"/>
<text text-anchor="middle" x="355" y="-7" font-family="Helvetica,sans-Serif" font-size="10.00">functional</text>
</a>
</g>
</g>
<!-- Node5&#45;&gt;Node7 -->
<g id="edge7_Node000005_Node000007" class="edge">
<title>Node5&#45;&gt;Node7</title>
<g id="a_edge7_Node000005_Node000007"><a xlink:title=" ">
<path fill="none" stroke="#63b8ff" d="M362.51,-54.75C361.33,-47.8 359.64,-37.85 358.16,-29.13"/>
<polygon fill="#63b8ff" stroke="#63b8ff" points="361.58,-28.36 356.46,-19.09 354.68,-29.53 361.58,-28.36"/>
</a>
</g>
</g>
<!-- Node8 -->
<g id="Node000008" class="node">
<title>Node8</title>
<g id="a_Node000008"><a xlink:title=" ">
<polygon fill="#e0e0e0" stroke="#999999" points="444,-19 402,-19 402,0 444,0 444,-19"/>
<text text-anchor="middle" x="423" y="-7" font-family="Helvetica,sans-Serif" font-size="10.00">vector</text>
</a>
</g>
</g>
<!-- Node5&#45;&gt;Node8 -->
<g id="edge8_Node000005_Node000008" class="edge">
<title>Node5&#45;&gt;Node8</title>
<g id="a_edge8_Node000005_Node000008"><a xlink:title=" ">
<path fill="none" stroke="#63b8ff" d="M373.48,-54.98C382.2,-47.15 395.34,-35.34 405.9,-25.86"/>
<polygon fill="#63b8ff" stroke="#63b8ff" points="408.25,-28.46 413.35,-19.17 403.57,-23.25 408.25,-28.46"/>
</a>
</g>
</g>
<!-- Node9&#45;&gt;Node6 -->
<g id="edge10_Node000009_Node000006" class="edge">
<title>Node9&#45;&gt;Node6</title>
<g id="a_edge10_Node000009_Node000006"><a xlink:title=" ">
<path fill="none" stroke="#63b8ff" d="M279,-54.75C279,-47.8 279,-37.85 279,-29.13"/>
<polygon fill="#63b8ff" stroke="#63b8ff" points="282.5,-29.09 279,-19.09 275.5,-29.09 282.5,-29.09"/>
</a>
</g>
</g>
</g>
</svg>

<g id="navigator" transform="translate(0 0)" fill="#404254">
  <rect fill="#f2f5e9" fill-opacity="0.5" stroke="#606060" stroke-width=".5" x="0" y="0" width="60" height="60"/>
  <use id="zoomplus" xlink:href="#zoomPlus" x="17" y="9" onmousedown="handleZoom(evt,'in')"/>
  <use id="zoomminus" xlink:href="#zoomMin" x="42" y="9" onmousedown="handleZoom(evt,'out')"/>
  <use id="reset" xlink:href="#resetDef" x="30" y="36" onmousedown="handleReset()"/>
   <use id="arrowup" xlink:href="#arrowUp" x="0" y="0" onmousedown="handlePan(0,-1)"/>
  <use id="arrowright" xlink:href="#arrowRight" x="0" y="0" onmousedown="handlePan(1,0)"/>
  <use id="arrowdown" xlink:href="#arrowDown" x="0" y="0" onmousedown="handlePan(0,1)"/>
  <use id="arrowleft" xlink:href="#arrowLeft" x="0" y="0" onmousedown="handlePan(-1,0)"/>
</g>
<svg viewBox="0 0 15 15" width="100%" height="30px" preserveAspectRatio="xMaxYMin meet">
 <g id="arrow_out" transform="scale(0.3 0.3)">
  <a xlink:href="localsportsapp_8cpp__incl_org.svg" target="_base">
   <rect id="button" ry="5" rx="5" y="6" x="6" height="38" width="38"
        fill="#f2f5e9" fill-opacity="0.5" stroke="#606060" stroke-width="1.0"/>
   <path id="arrow"
     d="M 11.500037,31.436501 C 11.940474,20.09759 22.043105,11.32322 32.158766,21.979434 L 37.068811,17.246167 C 37.068811,17.246167 37.088388,32 37.088388,32 L 22.160133,31.978069 C 22.160133,31.978069 26.997745,27.140456 26.997745,27.140456 C 18.528582,18.264221 13.291696,25.230495 11.500037,31.436501 z"
     style="fill:#404040;"/>
  </a>
 </g>
</svg>

<style type='text/css'>
<![CDATA[
[data-mouse-over-selected='false'] { opacity: 0.7; }
[data-mouse-over-selected='true']  { opacity: 1.0; }
]]>
</style>
<script type="application/ecmascript"><![CDATA[
document.addEventListener('DOMContentLoaded', (event) => {
  highlightEdges();
  highlightAdjacentNodes();
});
]]></script>
</svg>
