<?xml version="1.0" encoding="UTF-8" standalone="no"?>
<!DOCTYPE svg PUBLIC "-//W3C//DTD SVG 1.1//EN"
 "http://www.w3.org/Graphics/SVG/1.1/DTD/svg11.dtd">
<!-- Generated by graphviz version 6.0.2 (20221011.1828)
 -->
<!-- Title:  Ahmed/Desktop/cen429&#45;2025&#45;2026&#45;5&#45;muhammedbesir&#45;velioglu&#45;cpp/src/utility/src/mathUtility.cpp Pages: 1 -->
<svg width="188pt" height="225pt"
 viewBox="0.00 0.00 187.50 225.00" xmlns="http://www.w3.org/2000/svg" xmlns:xlink="http://www.w3.org/1999/xlink">

<svg id="main" version="1.1" xmlns="http://www.w3.org/2000/svg" xmlns:xlink="http://www.w3.org/1999/xlink" xml:space="preserve" onload="init(evt)">
<style type="text/css"><![CDATA[
.node, .edge {opacity: 0.7;}
.node.selected, .edge.selected {opacity: 1;}
.edge:hover path { stroke: red; }
.edge:hover polygon { stroke: red; fill: red; }
]]></style>
<script type="application/ecmascript" xlink:href="svg.min.js"/>
<svg id="graph" class="graph">
<g id="graph0" class="graph" transform="scale(1 1) rotate(0) translate(4 221)">
<title> Ahmed/Desktop/cen429&#45;2025&#45;2026&#45;5&#45;muhammedbesir&#45;velioglu&#45;cpp/src/utility/src/mathUtility.cpp</title>
<!-- Node1 -->
<g id="Node000001" class="node">
<title>Node1</title>
<g id="a_Node000001"><a xlink:title="Provides functions for math. utilities.">
<polygon fill="#999999" stroke="#666666" points="148,-217 0,-217 0,-165 148,-165 148,-217"/>
<text text-anchor="start" x="8" y="-205" font-family="Helvetica,sans-Serif" font-size="10.00"> Ahmed/Desktop/cen429</text>
<text text-anchor="start" x="8" y="-194" font-family="Helvetica,sans-Serif" font-size="10.00">&#45;2025&#45;2026&#45;5&#45;muhammedbesir</text>
<text text-anchor="start" x="8" y="-183" font-family="Helvetica,sans-Serif" font-size="10.00">&#45;velioglu&#45;cpp/src/utility</text>
<text text-anchor="middle" x="74" y="-172" font-family="Helvetica,sans-Serif" font-size="10.00">/src/mathUtility.cpp</text>
</a>
</g>
</g>
<!-- Node2 -->
<g id="Node000002" class="node">
<title>Node2</title>
<g id="a_Node000002"><a xlink:title=" ">
<polygon fill="#e0e0e0" stroke="#999999" points="48,-129 2,-129 2,-110 48,-110 48,-129"/>
<text text-anchor="middle" x="25" y="-117" font-family="Helvetica,sans-Serif" font-size="10.00">cstring</text>
</a>
</g>
</g>
<!-- Node1&#45;&gt;Node2 -->
<g id="edge1_Node000001_Node000002" class="edge">
<title>Node1&#45;&gt;Node2</title>
<g id="a_edge1_Node000001_Node000002"><a xlink:title=" ">
<path fill="none" stroke="#63b8ff" d="M56.31,-164.91C49.94,-155.87 42.89,-145.88 37.11,-137.67"/>
<polygon fill="#63b8ff" stroke="#63b8ff" points="39.83,-135.46 31.21,-129.3 34.11,-139.49 39.83,-135.46"/>
</a>
</g>
</g>
<!-- Node3 -->
<g id="Node000003" class="node">
<title>Node3</title>
<g id="a_Node000003"><a xlink:href="math_utility_8h.html" target="_top" xlink:title="Provides functions for math. utilities.">
<polygon fill="white" stroke="#666666" points="179.5,-129 66.5,-129 66.5,-110 179.5,-110 179.5,-129"/>
<text text-anchor="middle" x="123" y="-117" font-family="Helvetica,sans-Serif" font-size="10.00">../header/mathUtility.h</text>
</a>
</g>
</g>
<!-- Node1&#45;&gt;Node3 -->
<g id="edge2_Node000001_Node000003" class="edge">
<title>Node1&#45;&gt;Node3</title>
<g id="a_edge2_Node000001_Node000003"><a xlink:title=" ">
<path fill="none" stroke="#63b8ff" d="M91.69,-164.91C98.06,-155.87 105.11,-145.88 110.89,-137.67"/>
<polygon fill="#63b8ff" stroke="#63b8ff" points="113.89,-139.49 116.79,-129.3 108.17,-135.46 113.89,-139.49"/>
</a>
</g>
</g>
<!-- Node4 -->
<g id="Node000004" class="node">
<title>Node4</title>
<g id="a_Node000004"><a xlink:href="common_types_8h.html" target="_top" xlink:title="Provides cross&#45;platform type definitions.">
<polygon fill="white" stroke="#666666" points="167.5,-74 78.5,-74 78.5,-55 167.5,-55 167.5,-74"/>
<text text-anchor="middle" x="123" y="-62" font-family="Helvetica,sans-Serif" font-size="10.00">commonTypes.h</text>
</a>
</g>
</g>
<!-- Node3&#45;&gt;Node4 -->
<g id="edge3_Node000003_Node000004" class="edge">
<title>Node3&#45;&gt;Node4</title>
<g id="a_edge3_Node000003_Node000004"><a xlink:title=" ">
<path fill="none" stroke="#63b8ff" d="M123,-109.75C123,-102.8 123,-92.85 123,-84.13"/>
<polygon fill="#63b8ff" stroke="#63b8ff" points="126.5,-84.09 123,-74.09 119.5,-84.09 126.5,-84.09"/>
</a>
</g>
</g>
<!-- Node5 -->
<g id="Node000005" class="node">
<title>Node5</title>
<g id="a_Node000005"><a xlink:title=" ">
<polygon fill="#e0e0e0" stroke="#999999" points="152.5,-19 93.5,-19 93.5,0 152.5,0 152.5,-19"/>
<text text-anchor="middle" x="123" y="-7" font-family="Helvetica,sans-Serif" font-size="10.00">stdexcept</text>
</a>
</g>
</g>
<!-- Node4&#45;&gt;Node5 -->
<g id="edge4_Node000004_Node000005" class="edge">
<title>Node4&#45;&gt;Node5</title>
<g id="a_edge4_Node000004_Node000005"><a xlink:title=" ">
<path fill="none" stroke="#63b8ff" d="M123,-54.75C123,-47.8 123,-37.85 123,-29.13"/>
<polygon fill="#63b8ff" stroke="#63b8ff" points="126.5,-29.09 123,-19.09 119.5,-29.09 126.5,-29.09"/>
</a>
</g>
</g>
</g>
</svg>
</svg>

<style type='text/css'>
<![CDATA[
[data-mouse-over-selected='false'] { opacity: 0.7; }
[data-mouse-over-selected='true']  { opacity: 1.0; }
]]>
</style>
<script type="application/ecmascript"><![CDATA[
document.addEventListener('DOMContentLoaded', (event) => {
  highlightEdges();
  highlightAdjacentNodes();
});
]]></script>
</svg>
