<?xml version="1.0" encoding="UTF-8" standalone="no"?>
<!DOCTYPE svg PUBLIC "-//W3C//DTD SVG 1.1//EN"
 "http://www.w3.org/Graphics/SVG/1.1/DTD/svg11.dtd">
<!-- Generated by graphviz version 6.0.2 (20221011.1828)
 -->
<!-- Title: src/LocalSports/header/rasp.h Pages: 1 -->
<svg width="365pt" height="104pt"
 viewBox="0.00 0.00 364.50 104.00" xmlns="http://www.w3.org/2000/svg" xmlns:xlink="http://www.w3.org/1999/xlink">
<g id="graph0" class="graph" transform="scale(1 1) rotate(0) translate(4 100)">
<title>src/LocalSports/header/rasp.h</title>
<!-- Node1 -->
<g id="Node000001" class="node">
<title>Node1</title>
<g id="a_Node000001"><a xlink:title=" ">
<polygon fill="#999999" stroke="#666666" points="228,-96 111,-96 111,-66 228,-66 228,-96"/>
<text text-anchor="start" x="119" y="-84" font-family="Helvetica,sans-Serif" font-size="10.00">src/LocalSports/header</text>
<text text-anchor="middle" x="169.5" y="-73" font-family="Helvetica,sans-Serif" font-size="10.00">/rasp.h</text>
</a>
</g>
</g>
<!-- Node2 -->
<g id="Node000002" class="node">
<title>Node2</title>
<g id="a_Node000002"><a xlink:href="localsports_8cpp.html" target="_top" xlink:title=" ">
<polygon fill="white" stroke="#666666" points="101,-30 0,-30 0,0 101,0 101,-30"/>
<text text-anchor="start" x="8" y="-18" font-family="Helvetica,sans-Serif" font-size="10.00">src/LocalSports/src</text>
<text text-anchor="middle" x="50.5" y="-7" font-family="Helvetica,sans-Serif" font-size="10.00">/localsports.cpp</text>
</a>
</g>
</g>
<!-- Node1&#45;&gt;Node2 -->
<g id="edge1_Node000001_Node000002" class="edge">
<title>Node1&#45;&gt;Node2</title>
<g id="a_edge1_Node000001_Node000002"><a xlink:title=" ">
<path fill="none" stroke="#63b8ff" d="M134.37,-61.11C115.85,-51.14 93.51,-39.13 76.55,-30.01"/>
<polygon fill="#63b8ff" stroke="#63b8ff" points="132.92,-64.3 143.38,-65.95 136.24,-58.14 132.92,-64.3"/>
</a>
</g>
</g>
<!-- Node3 -->
<g id="Node000003" class="node">
<title>Node3</title>
<g id="a_Node000003"><a xlink:href="rasp_8cpp.html" target="_top" xlink:title=" ">
<polygon fill="white" stroke="#666666" points="220,-30 119,-30 119,0 220,0 220,-30"/>
<text text-anchor="start" x="127" y="-18" font-family="Helvetica,sans-Serif" font-size="10.00">src/LocalSports/src</text>
<text text-anchor="middle" x="169.5" y="-7" font-family="Helvetica,sans-Serif" font-size="10.00">/rasp.cpp</text>
</a>
</g>
</g>
<!-- Node1&#45;&gt;Node3 -->
<g id="edge2_Node000001_Node000003" class="edge">
<title>Node1&#45;&gt;Node3</title>
<g id="a_edge2_Node000001_Node000003"><a xlink:title=" ">
<path fill="none" stroke="#63b8ff" d="M169.5,-55.54C169.5,-46.96 169.5,-37.61 169.5,-30.16"/>
<polygon fill="#63b8ff" stroke="#63b8ff" points="166,-55.8 169.5,-65.8 173,-55.8 166,-55.8"/>
</a>
</g>
</g>
<!-- Node4 -->
<g id="Node000004" class="node">
<title>Node4</title>
<g id="a_Node000004"><a xlink:href="localsportsapp_8cpp.html" target="_top" xlink:title=" ">
<polygon fill="white" stroke="#666666" points="356.5,-30 238.5,-30 238.5,0 356.5,0 356.5,-30"/>
<text text-anchor="start" x="246.5" y="-18" font-family="Helvetica,sans-Serif" font-size="10.00">src/LocalSportsapp</text>
<text text-anchor="middle" x="297.5" y="-7" font-family="Helvetica,sans-Serif" font-size="10.00">/src/localsportsapp.cpp</text>
</a>
</g>
</g>
<!-- Node1&#45;&gt;Node4 -->
<g id="edge3_Node000001_Node000004" class="edge">
<title>Node1&#45;&gt;Node4</title>
<g id="a_edge3_Node000001_Node000004"><a xlink:title=" ">
<path fill="none" stroke="#63b8ff" d="M206.74,-61.38C226.77,-51.36 251.07,-39.22 269.48,-30.01"/>
<polygon fill="#63b8ff" stroke="#63b8ff" points="204.97,-58.35 197.59,-65.95 208.1,-64.61 204.97,-58.35"/>
</a>
</g>
</g>
</g>
</svg>
