<?xml version="1.0" encoding="UTF-8" standalone="no"?>
<!DOCTYPE svg PUBLIC "-//W3C//DTD SVG 1.1//EN"
 "http://www.w3.org/Graphics/SVG/1.1/DTD/svg11.dtd">
<!-- Generated by graphviz version 6.0.2 (20221011.1828)
 -->
<!-- Title:  Ahmed/Desktop/cen429&#45;2025&#45;2026&#45;5&#45;muhammedbesir&#45;velioglu&#45;cpp/src/LocalSports/header/security_layer.h Pages: 1 -->
<svg width="156pt" height="115pt"
 viewBox="0.00 0.00 156.00 115.00" xmlns="http://www.w3.org/2000/svg" xmlns:xlink="http://www.w3.org/1999/xlink">
<g id="graph0" class="graph" transform="scale(1 1) rotate(0) translate(4 111)">
<title> Ahmed/Desktop/cen429&#45;2025&#45;2026&#45;5&#45;muhammedbesir&#45;velioglu&#45;cpp/src/LocalSports/header/security_layer.h</title>
<!-- Node1 -->
<g id="Node000001" class="node">
<title>Node1</title>
<g id="a_Node000001"><a xlink:title=" ">
<polygon fill="#999999" stroke="#666666" points="148,-107 0,-107 0,-55 148,-55 148,-107"/>
<text text-anchor="start" x="8" y="-95" font-family="Helvetica,sans-Serif" font-size="10.00"> Ahmed/Desktop/cen429</text>
<text text-anchor="start" x="8" y="-84" font-family="Helvetica,sans-Serif" font-size="10.00">&#45;2025&#45;2026&#45;5&#45;muhammedbesir</text>
<text text-anchor="start" x="8" y="-73" font-family="Helvetica,sans-Serif" font-size="10.00">&#45;velioglu&#45;cpp/src/LocalSports</text>
<text text-anchor="middle" x="74" y="-62" font-family="Helvetica,sans-Serif" font-size="10.00">/header/security_layer.h</text>
</a>
</g>
</g>
<!-- Node2 -->
<g id="Node000002" class="node">
<title>Node2</title>
<g id="a_Node000002"><a xlink:title=" ">
<polygon fill="#e0e0e0" stroke="#999999" points="67,-19 19,-19 19,0 67,0 67,-19"/>
<text text-anchor="middle" x="43" y="-7" font-family="Helvetica,sans-Serif" font-size="10.00">cstddef</text>
</a>
</g>
</g>
<!-- Node1&#45;&gt;Node2 -->
<g id="edge1_Node000001_Node000002" class="edge">
<title>Node1&#45;&gt;Node2</title>
<g id="a_edge1_Node000001_Node000002"><a xlink:title=" ">
<path fill="none" stroke="#63b8ff" d="M62.81,-54.91C58.91,-46.16 54.61,-36.52 51.02,-28.47"/>
<polygon fill="#63b8ff" stroke="#63b8ff" points="54.2,-27.01 46.93,-19.3 47.8,-29.86 54.2,-27.01"/>
</a>
</g>
</g>
<!-- Node3 -->
<g id="Node000003" class="node">
<title>Node3</title>
<g id="a_Node000003"><a xlink:title=" ">
<polygon fill="#e0e0e0" stroke="#999999" points="126.5,-19 85.5,-19 85.5,0 126.5,0 126.5,-19"/>
<text text-anchor="middle" x="106" y="-7" font-family="Helvetica,sans-Serif" font-size="10.00">string</text>
</a>
</g>
</g>
<!-- Node1&#45;&gt;Node3 -->
<g id="edge2_Node000001_Node000003" class="edge">
<title>Node1&#45;&gt;Node3</title>
<g id="a_edge2_Node000001_Node000003"><a xlink:title=" ">
<path fill="none" stroke="#63b8ff" d="M85.55,-54.91C89.58,-46.16 94.02,-36.52 97.73,-28.47"/>
<polygon fill="#63b8ff" stroke="#63b8ff" points="100.94,-29.85 101.95,-19.3 94.59,-26.92 100.94,-29.85"/>
</a>
</g>
</g>
</g>
</svg>
