<?xml version="1.0" encoding="UTF-8" standalone="no"?>
<!DOCTYPE svg PUBLIC "-//W3C//DTD SVG 1.1//EN"
 "http://www.w3.org/Graphics/SVG/1.1/DTD/svg11.dtd">
<!-- Generated by graphviz version 6.0.2 (20221011.1828)
 -->
<!-- Title: src/LocalSports/src/security_layer.cpp Pages: 1 -->
<svg width="1608pt" height="148pt"
 viewBox="0.00 0.00 1607.50 148.00" xmlns="http://www.w3.org/2000/svg" xmlns:xlink="http://www.w3.org/1999/xlink">
<g id="graph0" class="graph" transform="scale(1 1) rotate(0) translate(4 144)">
<title>src/LocalSports/src/security_layer.cpp</title>
<!-- Node1 -->
<g id="Node000001" class="node">
<title>Node1</title>
<g id="a_Node000001"><a xlink:title=" ">
<polygon fill="#999999" stroke="#666666" points="749.5,-140 648.5,-140 648.5,-110 749.5,-110 749.5,-140"/>
<text text-anchor="start" x="656.5" y="-128" font-family="Helvetica,sans-Serif" font-size="10.00">src/LocalSports/src</text>
<text text-anchor="middle" x="699" y="-117" font-family="Helvetica,sans-Serif" font-size="10.00">/security_layer.cpp</text>
</a>
</g>
</g>
<!-- Node2 -->
<g id="Node000002" class="node">
<title>Node2</title>
<g id="a_Node000002"><a xlink:href="security__layer_8h.html" target="_top" xlink:title=" ">
<polygon fill="white" stroke="#666666" points="98,-74 12,-74 12,-55 98,-55 98,-74"/>
<text text-anchor="middle" x="55" y="-62" font-family="Helvetica,sans-Serif" font-size="10.00">security_layer.h</text>
</a>
</g>
</g>
<!-- Node1&#45;&gt;Node2 -->
<g id="edge1_Node000001_Node000002" class="edge">
<title>Node1&#45;&gt;Node2</title>
<g id="a_edge1_Node000001_Node000002"><a xlink:title=" ">
<path fill="none" stroke="#63b8ff" d="M648.27,-120.99C545.89,-114.63 307.31,-98.38 108,-74 107.9,-73.99 107.8,-73.98 107.7,-73.96"/>
<polygon fill="#63b8ff" stroke="#63b8ff" points="108.43,-70.53 98.06,-72.68 107.51,-77.47 108.43,-70.53"/>
</a>
</g>
</g>
<!-- Node5 -->
<g id="Node000005" class="node">
<title>Node5</title>
<g id="a_Node000005"><a xlink:title=" ">
<polygon fill="#e0e0e0" stroke="#999999" points="175.5,-74 116.5,-74 116.5,-55 175.5,-55 175.5,-74"/>
<text text-anchor="middle" x="146" y="-62" font-family="Helvetica,sans-Serif" font-size="10.00">stdexcept</text>
</a>
</g>
</g>
<!-- Node1&#45;&gt;Node5 -->
<g id="edge4_Node000001_Node000005" class="edge">
<title>Node1&#45;&gt;Node5</title>
<g id="a_edge4_Node000001_Node000005"><a xlink:title=" ">
<path fill="none" stroke="#63b8ff" d="M648.41,-121.06C557.68,-115.36 361.2,-101.04 185.67,-73.91"/>
<polygon fill="#63b8ff" stroke="#63b8ff" points="186.16,-70.45 175.74,-72.36 185.08,-77.36 186.16,-70.45"/>
</a>
</g>
</g>
<!-- Node6 -->
<g id="Node000006" class="node">
<title>Node6</title>
<g id="a_Node000006"><a xlink:title=" ">
<polygon fill="#e0e0e0" stroke="#999999" points="240,-74 194,-74 194,-55 240,-55 240,-74"/>
<text text-anchor="middle" x="217" y="-62" font-family="Helvetica,sans-Serif" font-size="10.00">cstring</text>
</a>
</g>
</g>
<!-- Node1&#45;&gt;Node6 -->
<g id="edge5_Node000001_Node000006" class="edge">
<title>Node1&#45;&gt;Node6</title>
<g id="a_edge5_Node000001_Node000006"><a xlink:title=" ">
<path fill="none" stroke="#63b8ff" d="M648.5,-120.71C566.83,-114.88 400.64,-100.91 250.23,-73.76"/>
<polygon fill="#63b8ff" stroke="#63b8ff" points="250.81,-70.3 240.35,-71.95 249.55,-77.19 250.81,-70.3"/>
</a>
</g>
</g>
<!-- Node7 -->
<g id="Node000007" class="node">
<title>Node7</title>
<g id="a_Node000007"><a xlink:title=" ">
<polygon fill="#e0e0e0" stroke="#999999" points="303.5,-74 258.5,-74 258.5,-55 303.5,-55 303.5,-74"/>
<text text-anchor="middle" x="281" y="-62" font-family="Helvetica,sans-Serif" font-size="10.00">cstdlib</text>
</a>
</g>
</g>
<!-- Node1&#45;&gt;Node7 -->
<g id="edge6_Node000001_Node000007" class="edge">
<title>Node1&#45;&gt;Node7</title>
<g id="a_edge6_Node000001_Node000007"><a xlink:title=" ">
<path fill="none" stroke="#63b8ff" d="M648.39,-119.57C576.18,-112.79 439.35,-98.21 313.46,-73.83"/>
<polygon fill="#63b8ff" stroke="#63b8ff" points="314.13,-70.4 303.64,-71.91 312.78,-77.27 314.13,-70.4"/>
</a>
</g>
</g>
<!-- Node8 -->
<g id="Node000008" class="node">
<title>Node8</title>
<g id="a_Node000008"><a xlink:title=" ">
<polygon fill="#e0e0e0" stroke="#999999" points="374,-74 322,-74 322,-55 374,-55 374,-74"/>
<text text-anchor="middle" x="348" y="-62" font-family="Helvetica,sans-Serif" font-size="10.00">memory</text>
</a>
</g>
</g>
<!-- Node1&#45;&gt;Node8 -->
<g id="edge7_Node000001_Node000008" class="edge">
<title>Node1&#45;&gt;Node8</title>
<g id="a_edge7_Node000001_Node000008"><a xlink:title=" ">
<path fill="none" stroke="#63b8ff" d="M648.42,-117.29C587.86,-108.97 483.15,-93.67 384.19,-74.1"/>
<polygon fill="#63b8ff" stroke="#63b8ff" points="384.81,-70.66 374.32,-72.14 383.44,-77.52 384.81,-70.66"/>
</a>
</g>
</g>
<!-- Node9 -->
<g id="Node000009" class="node">
<title>Node9</title>
<g id="a_Node000009"><a xlink:title=" ">
<polygon fill="#e0e0e0" stroke="#999999" points="446,-74 392,-74 392,-55 446,-55 446,-74"/>
<text text-anchor="middle" x="419" y="-62" font-family="Helvetica,sans-Serif" font-size="10.00">iostream</text>
</a>
</g>
</g>
<!-- Node1&#45;&gt;Node9 -->
<g id="edge8_Node000001_Node000009" class="edge">
<title>Node1&#45;&gt;Node9</title>
<g id="a_edge8_Node000001_Node000009"><a xlink:title=" ">
<path fill="none" stroke="#63b8ff" d="M648.44,-114.09C601.25,-104.75 528.61,-90.1 456.3,-74.24"/>
<polygon fill="#63b8ff" stroke="#63b8ff" points="456.63,-70.72 446.11,-71.99 455.12,-77.56 456.63,-70.72"/>
</a>
</g>
</g>
<!-- Node10 -->
<g id="Node000010" class="node">
<title>Node10</title>
<g id="a_Node000010"><a xlink:title=" ">
<polygon fill="#e0e0e0" stroke="#999999" points="520,-74 464,-74 464,-55 520,-55 520,-74"/>
<text text-anchor="middle" x="492" y="-62" font-family="Helvetica,sans-Serif" font-size="10.00">algorithm</text>
</a>
</g>
</g>
<!-- Node1&#45;&gt;Node10 -->
<g id="edge9_Node000001_Node000010" class="edge">
<title>Node1&#45;&gt;Node10</title>
<g id="a_edge9_Node000001_Node000010"><a xlink:title=" ">
<path fill="none" stroke="#63b8ff" d="M649.42,-109.99C612.78,-99.63 563.64,-85.75 530.07,-76.26"/>
<polygon fill="#63b8ff" stroke="#63b8ff" points="530.75,-72.81 520.18,-73.46 528.85,-79.55 530.75,-72.81"/>
</a>
</g>
</g>
<!-- Node11 -->
<g id="Node000011" class="node">
<title>Node11</title>
<g id="a_Node000011"><a xlink:title=" ">
<polygon fill="#e0e0e0" stroke="#999999" points="580,-74 538,-74 538,-55 580,-55 580,-74"/>
<text text-anchor="middle" x="559" y="-62" font-family="Helvetica,sans-Serif" font-size="10.00">vector</text>
</a>
</g>
</g>
<!-- Node1&#45;&gt;Node11 -->
<g id="edge10_Node000001_Node000011" class="edge">
<title>Node1&#45;&gt;Node11</title>
<g id="a_edge10_Node000001_Node000011"><a xlink:title=" ">
<path fill="none" stroke="#63b8ff" d="M665.47,-109.99C642.21,-100.27 611.51,-87.44 589.05,-78.06"/>
<polygon fill="#63b8ff" stroke="#63b8ff" points="590.25,-74.77 579.68,-74.14 587.55,-81.22 590.25,-74.77"/>
</a>
</g>
</g>
<!-- Node12 -->
<g id="Node000012" class="node">
<title>Node12</title>
<g id="a_Node000012"><a xlink:title=" ">
<polygon fill="#e0e0e0" stroke="#999999" points="655.5,-74 598.5,-74 598.5,-55 655.5,-55 655.5,-74"/>
<text text-anchor="middle" x="627" y="-62" font-family="Helvetica,sans-Serif" font-size="10.00">termios.h</text>
</a>
</g>
</g>
<!-- Node1&#45;&gt;Node12 -->
<g id="edge11_Node000001_Node000012" class="edge">
<title>Node1&#45;&gt;Node12</title>
<g id="a_edge11_Node000001_Node000012"><a xlink:title=" ">
<path fill="none" stroke="#63b8ff" d="M681.57,-109.84C670.69,-101 656.7,-89.63 645.61,-80.62"/>
<polygon fill="#63b8ff" stroke="#63b8ff" points="647.76,-77.86 637.79,-74.27 643.34,-83.29 647.76,-77.86"/>
</a>
</g>
</g>
<!-- Node13 -->
<g id="Node000013" class="node">
<title>Node13</title>
<g id="a_Node000013"><a xlink:title=" ">
<polygon fill="#e0e0e0" stroke="#999999" points="724.5,-74 673.5,-74 673.5,-55 724.5,-55 724.5,-74"/>
<text text-anchor="middle" x="699" y="-62" font-family="Helvetica,sans-Serif" font-size="10.00">unistd.h</text>
</a>
</g>
</g>
<!-- Node1&#45;&gt;Node13 -->
<g id="edge12_Node000001_Node000013" class="edge">
<title>Node1&#45;&gt;Node13</title>
<g id="a_edge12_Node000001_Node000013"><a xlink:title=" ">
<path fill="none" stroke="#63b8ff" d="M699,-109.84C699,-102.21 699,-92.7 699,-84.45"/>
<polygon fill="#63b8ff" stroke="#63b8ff" points="702.5,-84.27 699,-74.27 695.5,-84.27 702.5,-84.27"/>
</a>
</g>
</g>
<!-- Node14 -->
<g id="Node000014" class="node">
<title>Node14</title>
<g id="a_Node000014"><a xlink:title=" ">
<polygon fill="#e0e0e0" stroke="#999999" points="819,-74 743,-74 743,-55 819,-55 819,-74"/>
<text text-anchor="middle" x="781" y="-62" font-family="Helvetica,sans-Serif" font-size="10.00">openssl/evp.h</text>
</a>
</g>
</g>
<!-- Node1&#45;&gt;Node14 -->
<g id="edge13_Node000001_Node000014" class="edge">
<title>Node1&#45;&gt;Node14</title>
<g id="a_edge13_Node000001_Node000014"><a xlink:title=" ">
<path fill="none" stroke="#63b8ff" d="M718.85,-109.84C731.48,-100.83 747.8,-89.18 760.55,-80.09"/>
<polygon fill="#63b8ff" stroke="#63b8ff" points="762.6,-82.92 768.71,-74.27 758.54,-77.22 762.6,-82.92"/>
</a>
</g>
</g>
<!-- Node15 -->
<g id="Node000015" class="node">
<title>Node15</title>
<g id="a_Node000015"><a xlink:title=" ">
<polygon fill="#e0e0e0" stroke="#999999" points="917,-74 837,-74 837,-55 917,-55 917,-74"/>
<text text-anchor="middle" x="877" y="-62" font-family="Helvetica,sans-Serif" font-size="10.00">openssl/rand.h</text>
</a>
</g>
</g>
<!-- Node1&#45;&gt;Node15 -->
<g id="edge14_Node000001_Node000015" class="edge">
<title>Node1&#45;&gt;Node15</title>
<g id="a_edge14_Node000001_Node000015"><a xlink:title=" ">
<path fill="none" stroke="#63b8ff" d="M741.64,-109.99C772.09,-99.98 812.59,-86.67 841.33,-77.22"/>
<polygon fill="#63b8ff" stroke="#63b8ff" points="842.57,-80.5 850.97,-74.05 840.38,-73.85 842.57,-80.5"/>
</a>
</g>
</g>
<!-- Node16 -->
<g id="Node000016" class="node">
<title>Node16</title>
<g id="a_Node000016"><a xlink:title=" ">
<polygon fill="#e0e0e0" stroke="#999999" points="1012.5,-74 935.5,-74 935.5,-55 1012.5,-55 1012.5,-74"/>
<text text-anchor="middle" x="974" y="-62" font-family="Helvetica,sans-Serif" font-size="10.00">openssl/sha.h</text>
</a>
</g>
</g>
<!-- Node1&#45;&gt;Node16 -->
<g id="edge15_Node000001_Node000016" class="edge">
<title>Node1&#45;&gt;Node16</title>
<g id="a_edge15_Node000001_Node000016"><a xlink:title=" ">
<path fill="none" stroke="#63b8ff" d="M749.76,-113.2C799.85,-102.55 875.9,-86.37 925.27,-75.87"/>
<polygon fill="#63b8ff" stroke="#63b8ff" points="926.03,-79.28 935.08,-73.78 924.57,-72.44 926.03,-79.28"/>
</a>
</g>
</g>
<!-- Node17 -->
<g id="Node000017" class="node">
<title>Node17</title>
<g id="a_Node000017"><a xlink:title=" ">
<polygon fill="#e0e0e0" stroke="#999999" points="1103.5,-74 1030.5,-74 1030.5,-55 1103.5,-55 1103.5,-74"/>
<text text-anchor="middle" x="1067" y="-62" font-family="Helvetica,sans-Serif" font-size="10.00">openssl/err.h</text>
</a>
</g>
</g>
<!-- Node1&#45;&gt;Node17 -->
<g id="edge16_Node000001_Node000017" class="edge">
<title>Node1&#45;&gt;Node17</title>
<g id="a_edge16_Node000001_Node000017"><a xlink:title=" ">
<path fill="none" stroke="#63b8ff" d="M749.71,-116.68C811.34,-107.67 918.75,-91.58 1020.08,-74.29"/>
<polygon fill="#63b8ff" stroke="#63b8ff" points="1020.92,-77.7 1030.18,-72.56 1019.73,-70.8 1020.92,-77.7"/>
</a>
</g>
</g>
<!-- Node18 -->
<g id="Node000018" class="node">
<title>Node18</title>
<g id="a_Node000018"><a xlink:title=" ">
<polygon fill="#e0e0e0" stroke="#999999" points="1202,-74 1122,-74 1122,-55 1202,-55 1202,-74"/>
<text text-anchor="middle" x="1162" y="-62" font-family="Helvetica,sans-Serif" font-size="10.00">openssl/pem.h</text>
</a>
</g>
</g>
<!-- Node1&#45;&gt;Node18 -->
<g id="edge17_Node000001_Node000018" class="edge">
<title>Node1&#45;&gt;Node18</title>
<g id="a_edge17_Node000001_Node000018"><a xlink:title=" ">
<path fill="none" stroke="#63b8ff" d="M749.78,-118.72C826.05,-110.6 974.96,-94.03 1111.68,-74.13"/>
<polygon fill="#63b8ff" stroke="#63b8ff" points="1112.53,-77.54 1121.92,-72.63 1111.51,-70.61 1112.53,-77.54"/>
</a>
</g>
</g>
<!-- Node19 -->
<g id="Node000019" class="node">
<title>Node19</title>
<g id="a_Node000019"><a xlink:title=" ">
<polygon fill="#e0e0e0" stroke="#999999" points="1303.5,-74 1220.5,-74 1220.5,-55 1303.5,-55 1303.5,-74"/>
<text text-anchor="middle" x="1262" y="-62" font-family="Helvetica,sans-Serif" font-size="10.00">openssl/x509.h</text>
</a>
</g>
</g>
<!-- Node1&#45;&gt;Node19 -->
<g id="edge18_Node000001_Node000019" class="edge">
<title>Node1&#45;&gt;Node19</title>
<g id="a_edge18_Node000001_Node000019"><a xlink:title=" ">
<path fill="none" stroke="#63b8ff" d="M749.64,-120.2C839.99,-113.17 1035.13,-96.86 1210.37,-73.99"/>
<polygon fill="#63b8ff" stroke="#63b8ff" points="1210.83,-77.46 1220.29,-72.69 1209.91,-70.52 1210.83,-77.46"/>
</a>
</g>
</g>
<!-- Node20 -->
<g id="Node000020" class="node">
<title>Node20</title>
<g id="a_Node000020"><a xlink:title=" ">
<polygon fill="#e0e0e0" stroke="#999999" points="1396,-74 1322,-74 1322,-55 1396,-55 1396,-74"/>
<text text-anchor="middle" x="1359" y="-62" font-family="Helvetica,sans-Serif" font-size="10.00">openssl/bio.h</text>
</a>
</g>
</g>
<!-- Node1&#45;&gt;Node20 -->
<g id="edge19_Node000001_Node000020" class="edge">
<title>Node1&#45;&gt;Node20</title>
<g id="a_edge19_Node000001_Node000020"><a xlink:title=" ">
<path fill="none" stroke="#63b8ff" d="M749.73,-121.61C853.4,-116.36 1097.16,-102.08 1311.7,-74.04"/>
<polygon fill="#63b8ff" stroke="#63b8ff" points="1312.44,-77.47 1321.89,-72.69 1311.52,-70.53 1312.44,-77.47"/>
</a>
</g>
</g>
<!-- Node21 -->
<g id="Node000021" class="node">
<title>Node21</title>
<g id="a_Node000021"><a xlink:title=" ">
<polygon fill="#e0e0e0" stroke="#999999" points="1488,-74 1414,-74 1414,-55 1488,-55 1488,-74"/>
<text text-anchor="middle" x="1451" y="-62" font-family="Helvetica,sans-Serif" font-size="10.00">openssl/ssl.h</text>
</a>
</g>
</g>
<!-- Node1&#45;&gt;Node21 -->
<g id="edge20_Node000001_Node000021" class="edge">
<title>Node1&#45;&gt;Node21</title>
<g id="a_edge20_Node000001_Node000021"><a xlink:title=" ">
<path fill="none" stroke="#63b8ff" d="M749.7,-122.36C864.43,-118.23 1152.87,-105.48 1403.86,-74"/>
<polygon fill="#63b8ff" stroke="#63b8ff" points="1404.42,-77.45 1413.9,-72.72 1403.54,-70.51 1404.42,-77.45"/>
</a>
</g>
</g>
<!-- Node22 -->
<g id="Node000022" class="node">
<title>Node22</title>
<g id="a_Node000022"><a xlink:title=" ">
<polygon fill="#e0e0e0" stroke="#999999" points="1599.5,-74 1506.5,-74 1506.5,-55 1599.5,-55 1599.5,-74"/>
<text text-anchor="middle" x="1553" y="-62" font-family="Helvetica,sans-Serif" font-size="10.00">openssl/pkcs12.h</text>
</a>
</g>
</g>
<!-- Node1&#45;&gt;Node22 -->
<g id="edge21_Node000001_Node000022" class="edge">
<title>Node1&#45;&gt;Node22</title>
<g id="a_edge21_Node000001_Node000022"><a xlink:title=" ">
<path fill="none" stroke="#63b8ff" d="M749.55,-122.38C874.39,-118.04 1207.5,-104.45 1496.04,-74"/>
<polygon fill="#63b8ff" stroke="#63b8ff" points="1496.72,-77.44 1506.29,-72.9 1495.97,-70.48 1496.72,-77.44"/>
</a>
</g>
</g>
<!-- Node3 -->
<g id="Node000003" class="node">
<title>Node3</title>
<g id="a_Node000003"><a xlink:title=" ">
<polygon fill="#e0e0e0" stroke="#999999" points="48,-19 0,-19 0,0 48,0 48,-19"/>
<text text-anchor="middle" x="24" y="-7" font-family="Helvetica,sans-Serif" font-size="10.00">cstddef</text>
</a>
</g>
</g>
<!-- Node2&#45;&gt;Node3 -->
<g id="edge2_Node000002_Node000003" class="edge">
<title>Node2&#45;&gt;Node3</title>
<g id="a_edge2_Node000002_Node000003"><a xlink:title=" ">
<path fill="none" stroke="#63b8ff" d="M49.88,-54.75C45.64,-47.49 39.47,-36.95 34.22,-27.98"/>
<polygon fill="#63b8ff" stroke="#63b8ff" points="37.09,-25.95 29.02,-19.09 31.05,-29.49 37.09,-25.95"/>
</a>
</g>
</g>
<!-- Node4 -->
<g id="Node000004" class="node">
<title>Node4</title>
<g id="a_Node000004"><a xlink:title=" ">
<polygon fill="#e0e0e0" stroke="#999999" points="107.5,-19 66.5,-19 66.5,0 107.5,0 107.5,-19"/>
<text text-anchor="middle" x="87" y="-7" font-family="Helvetica,sans-Serif" font-size="10.00">string</text>
</a>
</g>
</g>
<!-- Node2&#45;&gt;Node4 -->
<g id="edge3_Node000002_Node000004" class="edge">
<title>Node2&#45;&gt;Node4</title>
<g id="a_edge3_Node000002_Node000004"><a xlink:title=" ">
<path fill="none" stroke="#63b8ff" d="M60.28,-54.75C64.71,-47.42 71.16,-36.73 76.62,-27.7"/>
<polygon fill="#63b8ff" stroke="#63b8ff" points="79.64,-29.46 81.81,-19.09 73.65,-25.84 79.64,-29.46"/>
</a>
</g>
</g>
</g>
</svg>
