<?xml version="1.0" encoding="UTF-8" standalone="no"?>
<!DOCTYPE svg PUBLIC "-//W3C//DTD SVG 1.1//EN"
 "http://www.w3.org/Graphics/SVG/1.1/DTD/svg11.dtd">
<!-- Generated by graphviz version 6.0.2 (20221011.1828)
 -->
<!-- Title: src/LocalSports/src/localsports.cpp Pages: 1 -->
<svg width="1186pt" height="148pt"
 viewBox="0.00 0.00 1186.00 148.00" xmlns="http://www.w3.org/2000/svg" xmlns:xlink="http://www.w3.org/1999/xlink">
<g id="graph0" class="graph" transform="scale(1 1) rotate(0) translate(4 144)">
<title>src/LocalSports/src/localsports.cpp</title>
<!-- Node1 -->
<g id="Node000001" class="node">
<title>Node1</title>
<g id="a_Node000001"><a xlink:title=" ">
<polygon fill="#999999" stroke="#666666" points="624.5,-140 523.5,-140 523.5,-110 624.5,-110 624.5,-140"/>
<text text-anchor="start" x="531.5" y="-128" font-family="Helvetica,sans-Serif" font-size="10.00">src/LocalSports/src</text>
<text text-anchor="middle" x="574" y="-117" font-family="Helvetica,sans-Serif" font-size="10.00">/localsports.cpp</text>
</a>
</g>
</g>
<!-- Node2 -->
<g id="Node000002" class="node">
<title>Node2</title>
<g id="a_Node000002"><a xlink:href="$localsports_8h.html" xlink:title=" ">
<polygon fill="white" stroke="#666666" points="72,-74 0,-74 0,-55 72,-55 72,-74"/>
<text text-anchor="middle" x="36" y="-62" font-family="Helvetica,sans-Serif" font-size="10.00">localsports.h</text>
</a>
</g>
</g>
<!-- Node1&#45;&gt;Node2 -->
<g id="edge45_Node000001_Node000002" class="edge">
<title>Node1&#45;&gt;Node2</title>
<g id="a_edge45_Node000001_Node000002"><a xlink:title=" ">
<path fill="none" stroke="#63b8ff" d="M523.29,-119.92C434.47,-112.52 245.07,-95.65 86,-74 84.72,-73.83 83.43,-73.64 82.13,-73.46"/>
<polygon fill="#63b8ff" stroke="#63b8ff" points="82.42,-69.96 72.01,-71.91 81.36,-76.88 82.42,-69.96"/>
</a>
</g>
</g>
<!-- Node3 -->
<g id="Node000003" class="node">
<title>Node3</title>
<g id="a_Node000003"><a xlink:title=" ">
<polygon fill="#e0e0e0" stroke="#999999" points="123,-19 77,-19 77,0 123,0 123,-19"/>
<text text-anchor="middle" x="100" y="-7" font-family="Helvetica,sans-Serif" font-size="10.00">cstdint</text>
</a>
</g>
</g>
<!-- Node1&#45;&gt;Node3 -->
<g id="edge56_Node000001_Node000003" class="edge">
<title>Node1&#45;&gt;Node3</title>
<g id="a_edge56_Node000001_Node000003"><a xlink:title=" ">
<path fill="none" stroke="#63b8ff" d="M523.43,-121.56C411.37,-115.73 149.6,-99.5 119,-74 106.03,-63.19 101.68,-43.9 100.34,-29.41"/>
<polygon fill="#63b8ff" stroke="#63b8ff" points="103.82,-28.88 99.8,-19.07 96.83,-29.24 103.82,-28.88"/>
</a>
</g>
</g>
<!-- Node4 -->
<g id="Node000004" class="node">
<title>Node4</title>
<g id="a_Node000004"><a xlink:title=" ">
<polygon fill="#e0e0e0" stroke="#999999" points="182,-74 128,-74 128,-55 182,-55 182,-74"/>
<text text-anchor="middle" x="155" y="-62" font-family="Helvetica,sans-Serif" font-size="10.00">iostream</text>
</a>
</g>
</g>
<!-- Node1&#45;&gt;Node4 -->
<g id="edge47_Node000001_Node000004" class="edge">
<title>Node1&#45;&gt;Node4</title>
<g id="a_edge47_Node000001_Node000004"><a xlink:title=" ">
<path fill="none" stroke="#63b8ff" d="M523.25,-119.04C451.61,-111.68 316.6,-96.45 192.15,-74.04"/>
<polygon fill="#63b8ff" stroke="#63b8ff" points="192.53,-70.55 182.06,-72.2 191.28,-77.44 192.53,-70.55"/>
</a>
</g>
</g>
<!-- Node5 -->
<g id="Node000005" class="node">
<title>Node5</title>
<g id="a_Node000005"><a xlink:title=" ">
<polygon fill="#e0e0e0" stroke="#999999" points="242,-74 200,-74 200,-55 242,-55 242,-74"/>
<text text-anchor="middle" x="221" y="-62" font-family="Helvetica,sans-Serif" font-size="10.00">vector</text>
</a>
</g>
</g>
<!-- Node1&#45;&gt;Node5 -->
<g id="edge48_Node000001_Node000005" class="edge">
<title>Node1&#45;&gt;Node5</title>
<g id="a_edge48_Node000001_Node000005"><a xlink:title=" ">
<path fill="none" stroke="#63b8ff" d="M523.29,-118.1C461.38,-110.47 353.37,-95.76 252.01,-73.99"/>
<polygon fill="#63b8ff" stroke="#63b8ff" points="252.74,-70.57 242.22,-71.86 251.25,-77.41 252.74,-70.57"/>
</a>
</g>
</g>
<!-- Node6 -->
<g id="Node000006" class="node">
<title>Node6</title>
<g id="a_Node000006"><a xlink:title=" ">
<polygon fill="#e0e0e0" stroke="#999999" points="878.5,-19 837.5,-19 837.5,0 878.5,0 878.5,-19"/>
<text text-anchor="middle" x="858" y="-7" font-family="Helvetica,sans-Serif" font-size="10.00">string</text>
</a>
</g>
</g>
<!-- Node1&#45;&gt;Node6 -->
<g id="edge49_Node000001_Node000006" class="edge">
<title>Node1&#45;&gt;Node6</title>
<g id="a_edge49_Node000001_Node000006"><a xlink:title=" ">
<path fill="none" stroke="#63b8ff" d="M624.52,-120.54C692.1,-114.9 807.05,-101.5 838,-74 850.54,-62.85 855.29,-43.93 857.05,-29.63"/>
<polygon fill="#63b8ff" stroke="#63b8ff" points="860.56,-29.65 857.92,-19.39 853.59,-29.06 860.56,-29.65"/>
</a>
</g>
</g>
<!-- Node7 -->
<g id="Node000007" class="node">
<title>Node7</title>
<g id="a_Node000007"><a xlink:title=" ">
<polygon fill="#e0e0e0" stroke="#999999" points="436,-74 386,-74 386,-55 436,-55 436,-74"/>
<text text-anchor="middle" x="411" y="-62" font-family="Helvetica,sans-Serif" font-size="10.00">iomanip</text>
</a>
</g>
</g>
<!-- Node1&#45;&gt;Node7 -->
<g id="edge50_Node000001_Node000007" class="edge">
<title>Node1&#45;&gt;Node7</title>
<g id="a_edge50_Node000001_Node000007"><a xlink:title=" ">
<path fill="none" stroke="#63b8ff" d="M534.96,-109.99C507.4,-100.1 470.85,-86.98 444.59,-77.56"/>
<polygon fill="#63b8ff" stroke="#63b8ff" points="445.67,-74.22 435.07,-74.14 443.3,-80.81 445.67,-74.22"/>
</a>
</g>
</g>
<!-- Node8 -->
<g id="Node000008" class="node">
<title>Node8</title>
<g id="a_Node000008"><a xlink:title=" ">
<polygon fill="#e0e0e0" stroke="#999999" points="500,-74 454,-74 454,-55 500,-55 500,-74"/>
<text text-anchor="middle" x="477" y="-62" font-family="Helvetica,sans-Serif" font-size="10.00">cstring</text>
</a>
</g>
</g>
<!-- Node1&#45;&gt;Node8 -->
<g id="edge51_Node000001_Node000008" class="edge">
<title>Node1&#45;&gt;Node8</title>
<g id="a_edge51_Node000001_Node000008"><a xlink:title=" ">
<path fill="none" stroke="#63b8ff" d="M550.52,-109.84C535.2,-100.6 515.29,-88.59 500.05,-79.4"/>
<polygon fill="#63b8ff" stroke="#63b8ff" points="501.62,-76.26 491.25,-74.09 498.01,-82.26 501.62,-76.26"/>
</a>
</g>
</g>
<!-- Node9 -->
<g id="Node000009" class="node">
<title>Node9</title>
<g id="a_Node000009"><a xlink:title=" ">
<polygon fill="#e0e0e0" stroke="#999999" points="561.5,-74 518.5,-74 518.5,-55 561.5,-55 561.5,-74"/>
<text text-anchor="middle" x="540" y="-62" font-family="Helvetica,sans-Serif" font-size="10.00">cstdio</text>
</a>
</g>
</g>
<!-- Node1&#45;&gt;Node9 -->
<g id="edge52_Node000001_Node000009" class="edge">
<title>Node1&#45;&gt;Node9</title>
<g id="a_edge52_Node000001_Node000009"><a xlink:title=" ">
<path fill="none" stroke="#63b8ff" d="M565.77,-109.84C561.09,-101.78 555.18,-91.62 550.2,-83.06"/>
<polygon fill="#63b8ff" stroke="#63b8ff" points="553.15,-81.15 545.09,-74.27 547.09,-84.67 553.15,-81.15"/>
</a>
</g>
</g>
<!-- Node10 -->
<g id="Node000010" class="node">
<title>Node10</title>
<g id="a_Node000010"><a xlink:title=" ">
<polygon fill="#e0e0e0" stroke="#999999" points="636,-74 580,-74 580,-55 636,-55 636,-74"/>
<text text-anchor="middle" x="608" y="-62" font-family="Helvetica,sans-Serif" font-size="10.00">algorithm</text>
</a>
</g>
</g>
<!-- Node1&#45;&gt;Node10 -->
<g id="edge53_Node000001_Node000010" class="edge">
<title>Node1&#45;&gt;Node10</title>
<g id="a_edge53_Node000001_Node000010"><a xlink:title=" ">
<path fill="none" stroke="#63b8ff" d="M582.23,-109.84C586.91,-101.78 592.82,-91.62 597.8,-83.06"/>
<polygon fill="#63b8ff" stroke="#63b8ff" points="600.91,-84.67 602.91,-74.27 594.85,-81.15 600.91,-84.67"/>
</a>
</g>
</g>
<!-- Node11 -->
<g id="Node000011" class="node">
<title>Node11</title>
<g id="a_Node000011"><a xlink:title=" ">
<polygon fill="#e0e0e0" stroke="#999999" points="695.5,-74 654.5,-74 654.5,-55 695.5,-55 695.5,-74"/>
<text text-anchor="middle" x="675" y="-62" font-family="Helvetica,sans-Serif" font-size="10.00">ctime</text>
</a>
</g>
</g>
<!-- Node1&#45;&gt;Node11 -->
<g id="edge54_Node000001_Node000011" class="edge">
<title>Node1&#45;&gt;Node11</title>
<g id="a_edge54_Node000001_Node000011"><a xlink:title=" ">
<path fill="none" stroke="#63b8ff" d="M598.19,-109.99C614.29,-100.66 635.34,-88.47 651.33,-79.21"/>
<polygon fill="#63b8ff" stroke="#63b8ff" points="653.19,-82.18 660.08,-74.14 649.68,-76.12 653.19,-82.18"/>
</a>
</g>
</g>
<!-- Node12 -->
<g id="Node000012" class="node">
<title>Node12</title>
<g id="a_Node000012"><a xlink:title=" ">
<polygon fill="#e0e0e0" stroke="#999999" points="758.5,-74 713.5,-74 713.5,-55 758.5,-55 758.5,-74"/>
<text text-anchor="middle" x="736" y="-62" font-family="Helvetica,sans-Serif" font-size="10.00">climits</text>
</a>
</g>
</g>
<!-- Node1&#45;&gt;Node12 -->
<g id="edge55_Node000001_Node000012" class="edge">
<title>Node1&#45;&gt;Node12</title>
<g id="a_edge55_Node000001_Node000012"><a xlink:title=" ">
<path fill="none" stroke="#63b8ff" d="M612.8,-109.99C640.69,-99.92 677.84,-86.5 704.03,-77.05"/>
<polygon fill="#63b8ff" stroke="#63b8ff" points="705.27,-80.32 713.49,-73.63 702.89,-73.73 705.27,-80.32"/>
</a>
</g>
</g>
<!-- Node13 -->
<g id="Node000013" class="node">
<title>Node13</title>
<g id="a_Node000013"><a xlink:title=" ">
<polygon fill="#e0e0e0" stroke="#999999" points="829.5,-74 776.5,-74 776.5,-55 829.5,-55 829.5,-74"/>
<text text-anchor="middle" x="803" y="-62" font-family="Helvetica,sans-Serif" font-size="10.00">sqlite3.h</text>
</a>
</g>
</g>
<!-- Node1&#45;&gt;Node13 -->
<g id="edge57_Node000001_Node000013" class="edge">
<title>Node1&#45;&gt;Node13</title>
<g id="a_edge57_Node000001_Node000013"><a xlink:title=" ">
<path fill="none" stroke="#63b8ff" d="M624.54,-111.09C667.58,-100.09 728.38,-84.56 766.74,-74.76"/>
<polygon fill="#63b8ff" stroke="#63b8ff" points="767.63,-78.15 776.45,-72.28 765.9,-71.37 767.63,-78.15"/>
</a>
</g>
</g>
<!-- Node14 -->
<g id="Node000014" class="node">
<title>Node14</title>
<g id="a_Node000014"><a xlink:href="$security__layer_8h.html" xlink:title=" ">
<polygon fill="white" stroke="#666666" points="972,-74 886,-74 886,-55 972,-55 972,-74"/>
<text text-anchor="middle" x="929" y="-62" font-family="Helvetica,sans-Serif" font-size="10.00">security_layer.h</text>
</a>
</g>
</g>
<!-- Node1&#45;&gt;Node14 -->
<g id="edge58_Node000001_Node000014" class="edge">
<title>Node1&#45;&gt;Node14</title>
<g id="a_edge58_Node000001_Node000014"><a xlink:title=" ">
<path fill="none" stroke="#63b8ff" d="M624.86,-115.62C691.51,-104.63 807.88,-85.46 875.71,-74.28"/>
<polygon fill="#63b8ff" stroke="#63b8ff" points="876.46,-77.7 885.76,-72.63 875.32,-70.8 876.46,-77.7"/>
</a>
</g>
</g>
<!-- Node16 -->
<g id="Node000016" class="node">
<title>Node16</title>
<g id="a_Node000016"><a xlink:href="$security__hardening_8h.html" xlink:title=" ">
<polygon fill="white" stroke="#666666" points="367.5,-74 260.5,-74 260.5,-55 367.5,-55 367.5,-74"/>
<text text-anchor="middle" x="314" y="-62" font-family="Helvetica,sans-Serif" font-size="10.00">security_hardening.h</text>
</a>
</g>
</g>
<!-- Node1&#45;&gt;Node16 -->
<g id="edge61_Node000001_Node000016" class="edge">
<title>Node1&#45;&gt;Node16</title>
<g id="a_edge61_Node000001_Node000016"><a xlink:title=" ">
<path fill="none" stroke="#63b8ff" d="M523.25,-112.58C476.54,-102.07 407.75,-86.59 361.95,-76.29"/>
<polygon fill="#63b8ff" stroke="#63b8ff" points="362.49,-72.82 351.97,-74.04 360.95,-79.65 362.49,-72.82"/>
</a>
</g>
</g>
<!-- Node18 -->
<g id="Node000018" class="node">
<title>Node18</title>
<g id="a_Node000018"><a xlink:title=" ">
<polygon fill="#e0e0e0" stroke="#999999" points="1079.5,-74 990.5,-74 990.5,-55 1079.5,-55 1079.5,-74"/>
<text text-anchor="middle" x="1035" y="-62" font-family="Helvetica,sans-Serif" font-size="10.00">openssl/crypto.h</text>
</a>
</g>
</g>
<!-- Node1&#45;&gt;Node18 -->
<g id="edge65_Node000001_Node000018" class="edge">
<title>Node1&#45;&gt;Node18</title>
<g id="a_edge65_Node000001_Node000018"><a xlink:title=" ">
<path fill="none" stroke="#63b8ff" d="M624.52,-118.35C699.64,-109.83 845.52,-92.81 980.14,-74.08"/>
<polygon fill="#63b8ff" stroke="#63b8ff" points="980.81,-77.52 990.23,-72.67 979.84,-70.58 980.81,-77.52"/>
</a>
</g>
</g>
<!-- Node19 -->
<g id="Node000019" class="node">
<title>Node19</title>
<g id="a_Node000019"><a xlink:title=" ">
<polygon fill="#e0e0e0" stroke="#999999" points="1178,-74 1098,-74 1098,-55 1178,-55 1178,-74"/>
<text text-anchor="middle" x="1138" y="-62" font-family="Helvetica,sans-Serif" font-size="10.00">openssl/rand.h</text>
</a>
</g>
</g>
<!-- Node1&#45;&gt;Node19 -->
<g id="edge66_Node000001_Node000019" class="edge">
<title>Node1&#45;&gt;Node19</title>
<g id="a_edge66_Node000001_Node000019"><a xlink:title=" ">
<path fill="none" stroke="#63b8ff" d="M624.58,-120.35C715.33,-113.54 911.94,-97.52 1087.97,-74.04"/>
<polygon fill="#63b8ff" stroke="#63b8ff" points="1088.48,-77.51 1097.93,-72.7 1087.55,-70.57 1088.48,-77.51"/>
</a>
</g>
</g>
<!-- Node2&#45;&gt;Node3 -->
<g id="edge46_Node000002_Node000003" class="edge">
<title>Node2&#45;&gt;Node3</title>
<g id="a_edge46_Node000002_Node000003"><a xlink:title=" ">
<path fill="none" stroke="#63b8ff" d="M46.28,-54.98C55.84,-47.07 70.28,-35.11 81.78,-25.58"/>
<polygon fill="#63b8ff" stroke="#63b8ff" points="84.06,-28.24 89.53,-19.17 79.6,-22.85 84.06,-28.24"/>
</a>
</g>
</g>
<!-- Node14&#45;&gt;Node6 -->
<g id="edge60_Node000014_Node000006" class="edge">
<title>Node14&#45;&gt;Node6</title>
<g id="a_edge60_Node000014_Node000006"><a xlink:title=" ">
<path fill="none" stroke="#63b8ff" d="M917.59,-54.98C906.89,-47 890.66,-34.88 877.84,-25.31"/>
<polygon fill="#63b8ff" stroke="#63b8ff" points="879.72,-22.35 869.61,-19.17 875.53,-27.96 879.72,-22.35"/>
</a>
</g>
</g>
<!-- Node15 -->
<g id="Node000015" class="node">
<title>Node15</title>
<g id="a_Node000015"><a xlink:title=" ">
<polygon fill="#e0e0e0" stroke="#999999" points="953,-19 905,-19 905,0 953,0 953,-19"/>
<text text-anchor="middle" x="929" y="-7" font-family="Helvetica,sans-Serif" font-size="10.00">cstddef</text>
</a>
</g>
</g>
<!-- Node14&#45;&gt;Node15 -->
<g id="edge59_Node000014_Node000015" class="edge">
<title>Node14&#45;&gt;Node15</title>
<g id="a_edge59_Node000014_Node000015"><a xlink:title=" ">
<path fill="none" stroke="#63b8ff" d="M929,-54.75C929,-47.8 929,-37.85 929,-29.13"/>
<polygon fill="#63b8ff" stroke="#63b8ff" points="932.5,-29.09 929,-19.09 925.5,-29.09 932.5,-29.09"/>
</a>
</g>
</g>
<!-- Node16&#45;&gt;Node3 -->
<g id="edge63_Node000016_Node000003" class="edge">
<title>Node16&#45;&gt;Node3</title>
<g id="a_edge63_Node000016_Node000003"><a xlink:title=" ">
<path fill="none" stroke="#63b8ff" d="M279.62,-54.98C239.18,-44.97 172.56,-28.47 132.82,-18.63"/>
<polygon fill="#63b8ff" stroke="#63b8ff" points="133.63,-15.22 123.09,-16.22 131.95,-22.02 133.63,-15.22"/>
</a>
</g>
</g>
<!-- Node16&#45;&gt;Node6 -->
<g id="edge62_Node000016_Node000006" class="edge">
<title>Node16&#45;&gt;Node6</title>
<g id="a_edge62_Node000016_Node000006"><a xlink:title=" ">
<path fill="none" stroke="#63b8ff" d="M367.6,-56.11C370.78,-55.72 373.93,-55.35 377,-55 546.56,-35.73 750.48,-18.98 826.99,-12.92"/>
<polygon fill="#63b8ff" stroke="#63b8ff" points="827.65,-16.38 837.34,-12.1 827.1,-9.4 827.65,-16.38"/>
</a>
</g>
</g>
<!-- Node17 -->
<g id="Node000017" class="node">
<title>Node17</title>
<g id="a_Node000017"><a xlink:title=" ">
<polygon fill="#e0e0e0" stroke="#999999" points="343,-19 285,-19 285,0 343,0 343,-19"/>
<text text-anchor="middle" x="314" y="-7" font-family="Helvetica,sans-Serif" font-size="10.00">functional</text>
</a>
</g>
</g>
<!-- Node16&#45;&gt;Node17 -->
<g id="edge64_Node000016_Node000017" class="edge">
<title>Node16&#45;&gt;Node17</title>
<g id="a_edge64_Node000016_Node000017"><a xlink:title=" ">
<path fill="none" stroke="#63b8ff" d="M314,-54.75C314,-47.8 314,-37.85 314,-29.13"/>
<polygon fill="#63b8ff" stroke="#63b8ff" points="317.5,-29.09 314,-19.09 310.5,-29.09 317.5,-29.09"/>
</a>
</g>
</g>
</g>
</svg>
