<?xml version="1.0" encoding="UTF-8" standalone="no"?>
<!DOCTYPE svg PUBLIC "-//W3C//DTD SVG 1.1//EN"
 "http://www.w3.org/Graphics/SVG/1.1/DTD/svg11.dtd">
<!-- Generated by graphviz version 6.0.2 (20221011.1828)
 -->
<!-- Title: src/LocalSports/src/localsports.cpp Pages: 1 -->
<svg width="1225pt" height="148pt"
 viewBox="0.00 0.00 1225.00 148.00" xmlns="http://www.w3.org/2000/svg" xmlns:xlink="http://www.w3.org/1999/xlink">
<g id="graph0" class="graph" transform="scale(1 1) rotate(0) translate(4 144)">
<title>src/LocalSports/src/localsports.cpp</title>
<!-- Node1 -->
<g id="Node000001" class="node">
<title>Node1</title>
<g id="a_Node000001"><a xlink:title=" ">
<polygon fill="#999999" stroke="#666666" points="643.5,-140 542.5,-140 542.5,-110 643.5,-110 643.5,-140"/>
<text text-anchor="start" x="550.5" y="-128" font-family="Helvetica,sans-Serif" font-size="10.00">src/LocalSports/src</text>
<text text-anchor="middle" x="593" y="-117" font-family="Helvetica,sans-Serif" font-size="10.00">/localsports.cpp</text>
</a>
</g>
</g>
<!-- Node2 -->
<g id="Node000002" class="node">
<title>Node2</title>
<g id="a_Node000002"><a xlink:href="$localsports_8h.html" xlink:title=" ">
<polygon fill="white" stroke="#666666" points="72,-74 0,-74 0,-55 72,-55 72,-74"/>
<text text-anchor="middle" x="36" y="-62" font-family="Helvetica,sans-Serif" font-size="10.00">localsports.h</text>
</a>
</g>
</g>
<!-- Node1&#45;&gt;Node2 -->
<g id="edge55_Node000001_Node000002" class="edge">
<title>Node1&#45;&gt;Node2</title>
<g id="a_edge55_Node000001_Node000002"><a xlink:title=" ">
<path fill="none" stroke="#63b8ff" d="M542.49,-120.2C451.16,-113.06 252.56,-96.34 86,-74 84.72,-73.83 83.43,-73.65 82.13,-73.46"/>
<polygon fill="#63b8ff" stroke="#63b8ff" points="82.42,-69.97 72,-71.93 81.37,-76.89 82.42,-69.97"/>
</a>
</g>
</g>
<!-- Node3 -->
<g id="Node000003" class="node">
<title>Node3</title>
<g id="a_Node000003"><a xlink:title=" ">
<polygon fill="#e0e0e0" stroke="#999999" points="142,-19 96,-19 96,0 142,0 142,-19"/>
<text text-anchor="middle" x="119" y="-7" font-family="Helvetica,sans-Serif" font-size="10.00">cstdint</text>
</a>
</g>
</g>
<!-- Node1&#45;&gt;Node3 -->
<g id="edge66_Node000001_Node000003" class="edge">
<title>Node1&#45;&gt;Node3</title>
<g id="a_edge66_Node000001_Node000003"><a xlink:title=" ">
<path fill="none" stroke="#63b8ff" d="M542.36,-122.41C425.92,-118.23 146.96,-105.06 119,-74 108.29,-62.1 109.73,-43.28 112.98,-29.21"/>
<polygon fill="#63b8ff" stroke="#63b8ff" points="116.47,-29.74 115.78,-19.17 109.72,-27.86 116.47,-29.74"/>
</a>
</g>
</g>
<!-- Node4 -->
<g id="Node000004" class="node">
<title>Node4</title>
<g id="a_Node000004"><a xlink:title=" ">
<polygon fill="#e0e0e0" stroke="#999999" points="550,-74 496,-74 496,-55 550,-55 550,-74"/>
<text text-anchor="middle" x="523" y="-62" font-family="Helvetica,sans-Serif" font-size="10.00">iostream</text>
</a>
</g>
</g>
<!-- Node1&#45;&gt;Node4 -->
<g id="edge57_Node000001_Node000004" class="edge">
<title>Node1&#45;&gt;Node4</title>
<g id="a_edge57_Node000001_Node000004"><a xlink:title=" ">
<path fill="none" stroke="#63b8ff" d="M576.05,-109.84C565.58,-101.09 552.14,-89.85 541.41,-80.88"/>
<polygon fill="#63b8ff" stroke="#63b8ff" points="543.41,-77.99 533.49,-74.27 538.92,-83.36 543.41,-77.99"/>
</a>
</g>
</g>
<!-- Node5 -->
<g id="Node000005" class="node">
<title>Node5</title>
<g id="a_Node000005"><a xlink:title=" ">
<polygon fill="#e0e0e0" stroke="#999999" points="357,-19 315,-19 315,0 357,0 357,-19"/>
<text text-anchor="middle" x="336" y="-7" font-family="Helvetica,sans-Serif" font-size="10.00">vector</text>
</a>
</g>
</g>
<!-- Node1&#45;&gt;Node5 -->
<g id="edge58_Node000001_Node000005" class="edge">
<title>Node1&#45;&gt;Node5</title>
<g id="a_edge58_Node000001_Node000005"><a xlink:title=" ">
<path fill="none" stroke="#63b8ff" d="M562.76,-109.96C541.5,-100.04 512.44,-86.36 487,-74 470.02,-65.75 466.25,-62.69 449,-55 421.49,-42.73 389.49,-30.3 366.59,-21.71"/>
<polygon fill="#63b8ff" stroke="#63b8ff" points="367.65,-18.37 357.06,-18.16 365.2,-24.93 367.65,-18.37"/>
</a>
</g>
</g>
<!-- Node6 -->
<g id="Node000006" class="node">
<title>Node6</title>
<g id="a_Node000006"><a xlink:title=" ">
<polygon fill="#e0e0e0" stroke="#999999" points="296.5,-19 255.5,-19 255.5,0 296.5,0 296.5,-19"/>
<text text-anchor="middle" x="276" y="-7" font-family="Helvetica,sans-Serif" font-size="10.00">string</text>
</a>
</g>
</g>
<!-- Node1&#45;&gt;Node6 -->
<g id="edge59_Node000001_Node000006" class="edge">
<title>Node1&#45;&gt;Node6</title>
<g id="a_edge59_Node000001_Node000006"><a xlink:title=" ">
<path fill="none" stroke="#63b8ff" d="M542.4,-121.76C490.36,-117.68 408.2,-106.22 345,-74 322.45,-62.5 301.84,-41.55 289.13,-26.86"/>
<polygon fill="#63b8ff" stroke="#63b8ff" points="291.7,-24.49 282.6,-19.06 286.33,-28.98 291.7,-24.49"/>
</a>
</g>
</g>
<!-- Node7 -->
<g id="Node000007" class="node">
<title>Node7</title>
<g id="a_Node000007"><a xlink:title=" ">
<polygon fill="#e0e0e0" stroke="#999999" points="618,-74 568,-74 568,-55 618,-55 618,-74"/>
<text text-anchor="middle" x="593" y="-62" font-family="Helvetica,sans-Serif" font-size="10.00">iomanip</text>
</a>
</g>
</g>
<!-- Node1&#45;&gt;Node7 -->
<g id="edge60_Node000001_Node000007" class="edge">
<title>Node1&#45;&gt;Node7</title>
<g id="a_edge60_Node000001_Node000007"><a xlink:title=" ">
<path fill="none" stroke="#63b8ff" d="M593,-109.84C593,-102.21 593,-92.7 593,-84.45"/>
<polygon fill="#63b8ff" stroke="#63b8ff" points="596.5,-84.27 593,-74.27 589.5,-84.27 596.5,-84.27"/>
</a>
</g>
</g>
<!-- Node8 -->
<g id="Node000008" class="node">
<title>Node8</title>
<g id="a_Node000008"><a xlink:title=" ">
<polygon fill="#e0e0e0" stroke="#999999" points="682,-74 636,-74 636,-55 682,-55 682,-74"/>
<text text-anchor="middle" x="659" y="-62" font-family="Helvetica,sans-Serif" font-size="10.00">cstring</text>
</a>
</g>
</g>
<!-- Node1&#45;&gt;Node8 -->
<g id="edge61_Node000001_Node000008" class="edge">
<title>Node1&#45;&gt;Node8</title>
<g id="a_edge61_Node000001_Node000008"><a xlink:title=" ">
<path fill="none" stroke="#63b8ff" d="M608.98,-109.84C618.75,-101.17 631.27,-90.08 641.34,-81.15"/>
<polygon fill="#63b8ff" stroke="#63b8ff" points="643.95,-83.52 649.11,-74.27 639.31,-78.28 643.95,-83.52"/>
</a>
</g>
</g>
<!-- Node9 -->
<g id="Node000009" class="node">
<title>Node9</title>
<g id="a_Node000009"><a xlink:title=" ">
<polygon fill="#e0e0e0" stroke="#999999" points="743.5,-74 700.5,-74 700.5,-55 743.5,-55 743.5,-74"/>
<text text-anchor="middle" x="722" y="-62" font-family="Helvetica,sans-Serif" font-size="10.00">cstdio</text>
</a>
</g>
</g>
<!-- Node1&#45;&gt;Node9 -->
<g id="edge62_Node000001_Node000009" class="edge">
<title>Node1&#45;&gt;Node9</title>
<g id="a_edge62_Node000001_Node000009"><a xlink:title=" ">
<path fill="none" stroke="#63b8ff" d="M623.9,-109.99C645.13,-100.36 673.11,-87.67 693.75,-78.31"/>
<polygon fill="#63b8ff" stroke="#63b8ff" points="695.29,-81.46 702.95,-74.14 692.4,-75.08 695.29,-81.46"/>
</a>
</g>
</g>
<!-- Node10 -->
<g id="Node000010" class="node">
<title>Node10</title>
<g id="a_Node000010"><a xlink:title=" ">
<polygon fill="#e0e0e0" stroke="#999999" points="818,-74 762,-74 762,-55 818,-55 818,-74"/>
<text text-anchor="middle" x="790" y="-62" font-family="Helvetica,sans-Serif" font-size="10.00">algorithm</text>
</a>
</g>
</g>
<!-- Node1&#45;&gt;Node10 -->
<g id="edge63_Node000001_Node000010" class="edge">
<title>Node1&#45;&gt;Node10</title>
<g id="a_edge63_Node000001_Node000010"><a xlink:title=" ">
<path fill="none" stroke="#63b8ff" d="M640.19,-109.99C674.39,-99.83 720.05,-86.27 751.93,-76.8"/>
<polygon fill="#63b8ff" stroke="#63b8ff" points="753.18,-80.09 761.77,-73.88 751.19,-73.37 753.18,-80.09"/>
</a>
</g>
</g>
<!-- Node11 -->
<g id="Node000011" class="node">
<title>Node11</title>
<g id="a_Node000011"><a xlink:title=" ">
<polygon fill="#e0e0e0" stroke="#999999" points="877.5,-74 836.5,-74 836.5,-55 877.5,-55 877.5,-74"/>
<text text-anchor="middle" x="857" y="-62" font-family="Helvetica,sans-Serif" font-size="10.00">ctime</text>
</a>
</g>
</g>
<!-- Node1&#45;&gt;Node11 -->
<g id="edge64_Node000001_Node000011" class="edge">
<title>Node1&#45;&gt;Node11</title>
<g id="a_edge64_Node000001_Node000011"><a xlink:title=" ">
<path fill="none" stroke="#63b8ff" d="M643.89,-114.13C689.3,-105.09 757.81,-90.91 826.67,-73.94"/>
<polygon fill="#63b8ff" stroke="#63b8ff" points="827.53,-77.34 836.39,-71.53 825.84,-70.54 827.53,-77.34"/>
</a>
</g>
</g>
<!-- Node12 -->
<g id="Node000012" class="node">
<title>Node12</title>
<g id="a_Node000012"><a xlink:title=" ">
<polygon fill="#e0e0e0" stroke="#999999" points="940.5,-74 895.5,-74 895.5,-55 940.5,-55 940.5,-74"/>
<text text-anchor="middle" x="918" y="-62" font-family="Helvetica,sans-Serif" font-size="10.00">climits</text>
</a>
</g>
</g>
<!-- Node1&#45;&gt;Node12 -->
<g id="edge65_Node000001_Node000012" class="edge">
<title>Node1&#45;&gt;Node12</title>
<g id="a_edge65_Node000001_Node000012"><a xlink:title=" ">
<path fill="none" stroke="#63b8ff" d="M643.76,-116.93C700.53,-108.68 795.37,-93.85 885.54,-74.15"/>
<polygon fill="#63b8ff" stroke="#63b8ff" points="886.37,-77.56 895.38,-71.98 884.86,-70.72 886.37,-77.56"/>
</a>
</g>
</g>
<!-- Node13 -->
<g id="Node000013" class="node">
<title>Node13</title>
<g id="a_Node000013"><a xlink:title=" ">
<polygon fill="#e0e0e0" stroke="#999999" points="1011.5,-74 958.5,-74 958.5,-55 1011.5,-55 1011.5,-74"/>
<text text-anchor="middle" x="985" y="-62" font-family="Helvetica,sans-Serif" font-size="10.00">sqlite3.h</text>
</a>
</g>
</g>
<!-- Node1&#45;&gt;Node13 -->
<g id="edge67_Node000001_Node000013" class="edge">
<title>Node1&#45;&gt;Node13</title>
<g id="a_edge67_Node000001_Node000013"><a xlink:title=" ">
<path fill="none" stroke="#63b8ff" d="M643.51,-118.52C710.95,-110.86 834.26,-95.62 948.36,-74.16"/>
<polygon fill="#63b8ff" stroke="#63b8ff" points="949.14,-77.58 958.31,-72.27 947.83,-70.7 949.14,-77.58"/>
</a>
</g>
</g>
<!-- Node14 -->
<g id="Node000014" class="node">
<title>Node14</title>
<g id="a_Node000014"><a xlink:href="$security__layer_8h.html" xlink:title=" ">
<polygon fill="white" stroke="#666666" points="440,-74 354,-74 354,-55 440,-55 440,-74"/>
<text text-anchor="middle" x="397" y="-62" font-family="Helvetica,sans-Serif" font-size="10.00">security_layer.h</text>
</a>
</g>
</g>
<!-- Node1&#45;&gt;Node14 -->
<g id="edge68_Node000001_Node000014" class="edge">
<title>Node1&#45;&gt;Node14</title>
<g id="a_edge68_Node000001_Node000014"><a xlink:title=" ">
<path fill="none" stroke="#63b8ff" d="M546.05,-109.99C512.23,-99.89 467.14,-86.44 435.45,-76.98"/>
<polygon fill="#63b8ff" stroke="#63b8ff" points="436.24,-73.56 425.66,-74.05 434.24,-80.27 436.24,-73.56"/>
</a>
</g>
</g>
<!-- Node16 -->
<g id="Node000016" class="node">
<title>Node16</title>
<g id="a_Node000016"><a xlink:href="$security__hardening_8h.html" xlink:title=" ">
<polygon fill="white" stroke="#666666" points="235.5,-74 128.5,-74 128.5,-55 235.5,-55 235.5,-74"/>
<text text-anchor="middle" x="182" y="-62" font-family="Helvetica,sans-Serif" font-size="10.00">security_hardening.h</text>
</a>
</g>
</g>
<!-- Node1&#45;&gt;Node16 -->
<g id="edge71_Node000001_Node000016" class="edge">
<title>Node1&#45;&gt;Node16</title>
<g id="a_edge71_Node000001_Node000016"><a xlink:title=" ">
<path fill="none" stroke="#63b8ff" d="M542.19,-116.77C467.32,-106.11 327.44,-86.2 245.77,-74.58"/>
<polygon fill="#63b8ff" stroke="#63b8ff" points="246.02,-71.08 235.62,-73.13 245.03,-78.01 246.02,-71.08"/>
</a>
</g>
</g>
<!-- Node18 -->
<g id="Node000018" class="node">
<title>Node18</title>
<g id="a_Node000018"><a xlink:href="$rasp_8h.html" xlink:title=" ">
<polygon fill="white" stroke="#666666" points="298,-74 254,-74 254,-55 298,-55 298,-74"/>
<text text-anchor="middle" x="276" y="-62" font-family="Helvetica,sans-Serif" font-size="10.00">rasp.h</text>
</a>
</g>
</g>
<!-- Node1&#45;&gt;Node18 -->
<g id="edge75_Node000001_Node000018" class="edge">
<title>Node1&#45;&gt;Node18</title>
<g id="a_edge75_Node000001_Node000018"><a xlink:title=" ">
<path fill="none" stroke="#63b8ff" d="M542.33,-115.86C485.94,-106.59 392.19,-90.59 312,-74 310.73,-73.74 309.43,-73.46 308.12,-73.18"/>
<polygon fill="#63b8ff" stroke="#63b8ff" points="308.57,-69.69 298.04,-70.91 307.03,-76.52 308.57,-69.69"/>
</a>
</g>
</g>
<!-- Node19 -->
<g id="Node000019" class="node">
<title>Node19</title>
<g id="a_Node000019"><a xlink:title=" ">
<polygon fill="#e0e0e0" stroke="#999999" points="1118.5,-74 1029.5,-74 1029.5,-55 1118.5,-55 1118.5,-74"/>
<text text-anchor="middle" x="1074" y="-62" font-family="Helvetica,sans-Serif" font-size="10.00">openssl/crypto.h</text>
</a>
</g>
</g>
<!-- Node1&#45;&gt;Node19 -->
<g id="edge80_Node000001_Node000019" class="edge">
<title>Node1&#45;&gt;Node19</title>
<g id="a_edge80_Node000001_Node000019"><a xlink:title=" ">
<path fill="none" stroke="#63b8ff" d="M643.82,-118.77C722.19,-110.56 877.52,-93.65 1019.3,-74.19"/>
<polygon fill="#63b8ff" stroke="#63b8ff" points="1020.06,-77.62 1029.49,-72.78 1019.1,-70.68 1020.06,-77.62"/>
</a>
</g>
</g>
<!-- Node20 -->
<g id="Node000020" class="node">
<title>Node20</title>
<g id="a_Node000020"><a xlink:title=" ">
<polygon fill="#e0e0e0" stroke="#999999" points="1217,-74 1137,-74 1137,-55 1217,-55 1217,-74"/>
<text text-anchor="middle" x="1177" y="-62" font-family="Helvetica,sans-Serif" font-size="10.00">openssl/rand.h</text>
</a>
</g>
</g>
<!-- Node1&#45;&gt;Node20 -->
<g id="edge81_Node000001_Node000020" class="edge">
<title>Node1&#45;&gt;Node20</title>
<g id="a_edge81_Node000001_Node000020"><a xlink:title=" ">
<path fill="none" stroke="#63b8ff" d="M643.68,-120.6C737.13,-114.03 943.07,-98.21 1126.81,-74.06"/>
<polygon fill="#63b8ff" stroke="#63b8ff" points="1127.47,-77.5 1136.93,-72.72 1126.55,-70.56 1127.47,-77.5"/>
</a>
</g>
</g>
<!-- Node2&#45;&gt;Node3 -->
<g id="edge56_Node000002_Node000003" class="edge">
<title>Node2&#45;&gt;Node3</title>
<g id="a_edge56_Node000002_Node000003"><a xlink:title=" ">
<path fill="none" stroke="#63b8ff" d="M49.34,-54.98C62.09,-46.84 81.55,-34.41 96.67,-24.76"/>
<polygon fill="#63b8ff" stroke="#63b8ff" points="98.88,-27.5 105.42,-19.17 95.11,-21.6 98.88,-27.5"/>
</a>
</g>
</g>
<!-- Node14&#45;&gt;Node6 -->
<g id="edge70_Node000014_Node000006" class="edge">
<title>Node14&#45;&gt;Node6</title>
<g id="a_edge70_Node000014_Node000006"><a xlink:title=" ">
<path fill="none" stroke="#63b8ff" d="M377.56,-54.98C358.01,-46.42 327.62,-33.11 305.18,-23.28"/>
<polygon fill="#63b8ff" stroke="#63b8ff" points="306.36,-19.98 295.79,-19.17 303.55,-26.39 306.36,-19.98"/>
</a>
</g>
</g>
<!-- Node15 -->
<g id="Node000015" class="node">
<title>Node15</title>
<g id="a_Node000015"><a xlink:title=" ">
<polygon fill="#e0e0e0" stroke="#999999" points="423,-19 375,-19 375,0 423,0 423,-19"/>
<text text-anchor="middle" x="399" y="-7" font-family="Helvetica,sans-Serif" font-size="10.00">cstddef</text>
</a>
</g>
</g>
<!-- Node14&#45;&gt;Node15 -->
<g id="edge69_Node000014_Node000015" class="edge">
<title>Node14&#45;&gt;Node15</title>
<g id="a_edge69_Node000014_Node000015"><a xlink:title=" ">
<path fill="none" stroke="#63b8ff" d="M397.33,-54.75C397.59,-47.8 397.97,-37.85 398.3,-29.13"/>
<polygon fill="#63b8ff" stroke="#63b8ff" points="401.8,-29.21 398.68,-19.09 394.8,-28.95 401.8,-29.21"/>
</a>
</g>
</g>
<!-- Node16&#45;&gt;Node3 -->
<g id="edge73_Node000016_Node000003" class="edge">
<title>Node16&#45;&gt;Node3</title>
<g id="a_edge73_Node000016_Node000003"><a xlink:title=" ">
<path fill="none" stroke="#63b8ff" d="M171.88,-54.98C162.56,-47.15 148.53,-35.34 137.26,-25.86"/>
<polygon fill="#63b8ff" stroke="#63b8ff" points="139.21,-22.93 129.31,-19.17 134.71,-28.29 139.21,-22.93"/>
</a>
</g>
</g>
<!-- Node16&#45;&gt;Node6 -->
<g id="edge72_Node000016_Node000006" class="edge">
<title>Node16&#45;&gt;Node6</title>
<g id="a_edge72_Node000016_Node000006"><a xlink:title=" ">
<path fill="none" stroke="#63b8ff" d="M197.1,-54.98C211.82,-46.69 234.42,-33.94 251.67,-24.22"/>
<polygon fill="#63b8ff" stroke="#63b8ff" points="253.63,-27.13 260.62,-19.17 250.19,-21.03 253.63,-27.13"/>
</a>
</g>
</g>
<!-- Node17 -->
<g id="Node000017" class="node">
<title>Node17</title>
<g id="a_Node000017"><a xlink:title=" ">
<polygon fill="#e0e0e0" stroke="#999999" points="224,-19 166,-19 166,0 224,0 224,-19"/>
<text text-anchor="middle" x="195" y="-7" font-family="Helvetica,sans-Serif" font-size="10.00">functional</text>
</a>
</g>
</g>
<!-- Node16&#45;&gt;Node17 -->
<g id="edge74_Node000016_Node000017" class="edge">
<title>Node16&#45;&gt;Node17</title>
<g id="a_edge74_Node000016_Node000017"><a xlink:title=" ">
<path fill="none" stroke="#63b8ff" d="M184.15,-54.75C185.87,-47.72 188.35,-37.62 190.5,-28.84"/>
<polygon fill="#63b8ff" stroke="#63b8ff" points="193.91,-29.63 192.89,-19.09 187.11,-27.97 193.91,-29.63"/>
</a>
</g>
</g>
<!-- Node18&#45;&gt;Node3 -->
<g id="edge77_Node000018_Node000003" class="edge">
<title>Node18&#45;&gt;Node3</title>
<g id="a_edge77_Node000018_Node000003"><a xlink:title=" ">
<path fill="none" stroke="#63b8ff" d="M253.84,-56.02C227.26,-47.05 182.47,-31.93 151.86,-21.59"/>
<polygon fill="#63b8ff" stroke="#63b8ff" points="152.66,-18.17 142.07,-18.29 150.42,-24.8 152.66,-18.17"/>
</a>
</g>
</g>
<!-- Node18&#45;&gt;Node5 -->
<g id="edge79_Node000018_Node000005" class="edge">
<title>Node18&#45;&gt;Node5</title>
<g id="a_edge79_Node000018_Node000005"><a xlink:title=" ">
<path fill="none" stroke="#63b8ff" d="M285.64,-54.98C294.51,-47.15 307.87,-35.34 318.61,-25.86"/>
<polygon fill="#63b8ff" stroke="#63b8ff" points="321.01,-28.41 326.18,-19.17 316.37,-23.17 321.01,-28.41"/>
</a>
</g>
</g>
<!-- Node18&#45;&gt;Node6 -->
<g id="edge76_Node000018_Node000006" class="edge">
<title>Node18&#45;&gt;Node6</title>
<g id="a_edge76_Node000018_Node000006"><a xlink:title=" ">
<path fill="none" stroke="#63b8ff" d="M276,-54.75C276,-47.8 276,-37.85 276,-29.13"/>
<polygon fill="#63b8ff" stroke="#63b8ff" points="279.5,-29.09 276,-19.09 272.5,-29.09 279.5,-29.09"/>
</a>
</g>
</g>
<!-- Node18&#45;&gt;Node17 -->
<g id="edge78_Node000018_Node000017" class="edge">
<title>Node18&#45;&gt;Node17</title>
<g id="a_edge78_Node000018_Node000017"><a xlink:title=" ">
<path fill="none" stroke="#63b8ff" d="M262.99,-54.98C250.54,-46.84 231.54,-34.41 216.79,-24.76"/>
<polygon fill="#63b8ff" stroke="#63b8ff" points="218.54,-21.72 208.25,-19.17 214.7,-27.57 218.54,-21.72"/>
</a>
</g>
</g>
</g>
</svg>
