<?xml version="1.0" encoding="UTF-8" standalone="no"?>
<!DOCTYPE svg PUBLIC "-//W3C//DTD SVG 1.1//EN"
 "http://www.w3.org/Graphics/SVG/1.1/DTD/svg11.dtd">
<!-- Generated by graphviz version 6.0.2 (20221011.1828)
 -->
<!-- Title:  Ahmed/Desktop/cen429&#45;2025&#45;2026&#45;5&#45;muhammedbesir&#45;velioglu&#45;cpp/src/LocalSports/src/rasp.cpp Pages: 1 -->
<svg width="1590pt" height="170pt"
 viewBox="0.00 0.00 1590.00 170.00" xmlns="http://www.w3.org/2000/svg" xmlns:xlink="http://www.w3.org/1999/xlink">
<g id="graph0" class="graph" transform="scale(1 1) rotate(0) translate(4 166)">
<title> Ahmed/Desktop/cen429&#45;2025&#45;2026&#45;5&#45;muhammedbesir&#45;velioglu&#45;cpp/src/LocalSports/src/rasp.cpp</title>
<!-- Node1 -->
<g id="Node000001" class="node">
<title>Node1</title>
<g id="a_Node000001"><a xlink:title=" ">
<polygon fill="#999999" stroke="#666666" points="847,-162 699,-162 699,-110 847,-110 847,-162"/>
<text text-anchor="start" x="707" y="-150" font-family="Helvetica,sans-Serif" font-size="10.00"> Ahmed/Desktop/cen429</text>
<text text-anchor="start" x="707" y="-139" font-family="Helvetica,sans-Serif" font-size="10.00">&#45;2025&#45;2026&#45;5&#45;muhammedbesir</text>
<text text-anchor="start" x="707" y="-128" font-family="Helvetica,sans-Serif" font-size="10.00">&#45;velioglu&#45;cpp/src/LocalSports</text>
<text text-anchor="middle" x="773" y="-117" font-family="Helvetica,sans-Serif" font-size="10.00">/src/rasp.cpp</text>
</a>
</g>
</g>
<!-- Node2 -->
<g id="Node000002" class="node">
<title>Node2</title>
<g id="a_Node000002"><a xlink:href="$rasp_8h.html" xlink:title=" ">
<polygon fill="white" stroke="#666666" points="164,-74 120,-74 120,-55 164,-55 164,-74"/>
<text text-anchor="middle" x="142" y="-62" font-family="Helvetica,sans-Serif" font-size="10.00">rasp.h</text>
</a>
</g>
</g>
<!-- Node1&#45;&gt;Node2 -->
<g id="edge57_Node000001_Node000002" class="edge">
<title>Node1&#45;&gt;Node2</title>
<g id="a_edge57_Node000001_Node000002"><a xlink:title=" ">
<path fill="none" stroke="#63b8ff" d="M698.84,-130.5C585.86,-122.95 364.1,-105.37 178,-74 176.75,-73.79 175.49,-73.56 174.21,-73.32"/>
<polygon fill="#63b8ff" stroke="#63b8ff" points="174.88,-69.89 164.38,-71.26 173.45,-76.74 174.88,-69.89"/>
</a>
</g>
</g>
<!-- Node6 -->
<g id="Node000006" class="node">
<title>Node6</title>
<g id="a_Node000006"><a xlink:title=" ">
<polygon fill="#e0e0e0" stroke="#999999" points="243,-19 201,-19 201,0 243,0 243,-19"/>
<text text-anchor="middle" x="222" y="-7" font-family="Helvetica,sans-Serif" font-size="10.00">vector</text>
</a>
</g>
</g>
<!-- Node1&#45;&gt;Node6 -->
<g id="edge75_Node000001_Node000006" class="edge">
<title>Node1&#45;&gt;Node6</title>
<g id="a_edge75_Node000001_Node000006"><a xlink:title=" ">
<path fill="none" stroke="#63b8ff" d="M698.76,-132.36C553.5,-126.43 243.02,-109.68 211,-74 199.94,-61.67 205.35,-42.36 211.88,-28.27"/>
<polygon fill="#63b8ff" stroke="#63b8ff" points="215.14,-29.6 216.62,-19.11 208.92,-26.39 215.14,-29.6"/>
</a>
</g>
</g>
<!-- Node7 -->
<g id="Node000007" class="node">
<title>Node7</title>
<g id="a_Node000007"><a xlink:href="$security__config_8h.html" xlink:title=" ">
<polygon fill="white" stroke="#666666" points="90,-74 0,-74 0,-55 90,-55 90,-74"/>
<text text-anchor="middle" x="45" y="-62" font-family="Helvetica,sans-Serif" font-size="10.00">security_config.h</text>
</a>
</g>
</g>
<!-- Node1&#45;&gt;Node7 -->
<g id="edge62_Node000001_Node000007" class="edge">
<title>Node1&#45;&gt;Node7</title>
<g id="a_edge62_Node000001_Node000007"><a xlink:title=" ">
<path fill="none" stroke="#63b8ff" d="M698.95,-129.06C576.48,-119.03 324.09,-97.53 111,-74 107.51,-73.61 103.91,-73.2 100.29,-72.77"/>
<polygon fill="#63b8ff" stroke="#63b8ff" points="100.41,-69.26 90.06,-71.52 99.57,-76.21 100.41,-69.26"/>
</a>
</g>
</g>
<!-- Node8 -->
<g id="Node000008" class="node">
<title>Node8</title>
<g id="a_Node000008"><a xlink:title=" ">
<polygon fill="#e0e0e0" stroke="#999999" points="274,-74 220,-74 220,-55 274,-55 274,-74"/>
<text text-anchor="middle" x="247" y="-62" font-family="Helvetica,sans-Serif" font-size="10.00">iostream</text>
</a>
</g>
</g>
<!-- Node1&#45;&gt;Node8 -->
<g id="edge64_Node000001_Node000008" class="edge">
<title>Node1&#45;&gt;Node8</title>
<g id="a_edge64_Node000001_Node000008"><a xlink:title=" ">
<path fill="none" stroke="#63b8ff" d="M698.92,-128.13C602.82,-118.67 430.17,-99.84 284,-74 283.9,-73.98 283.8,-73.96 283.7,-73.95"/>
<polygon fill="#63b8ff" stroke="#63b8ff" points="284.5,-70.54 274.01,-72.04 283.15,-77.41 284.5,-70.54"/>
</a>
</g>
</g>
<!-- Node9 -->
<g id="Node000009" class="node">
<title>Node9</title>
<g id="a_Node000009"><a xlink:title=" ">
<polygon fill="#e0e0e0" stroke="#999999" points="341.5,-74 292.5,-74 292.5,-55 341.5,-55 341.5,-74"/>
<text text-anchor="middle" x="317" y="-62" font-family="Helvetica,sans-Serif" font-size="10.00">fstream</text>
</a>
</g>
</g>
<!-- Node1&#45;&gt;Node9 -->
<g id="edge65_Node000001_Node000009" class="edge">
<title>Node1&#45;&gt;Node9</title>
<g id="a_edge65_Node000001_Node000009"><a xlink:title=" ">
<path fill="none" stroke="#63b8ff" d="M698.67,-126.57C616.22,-116.7 479.11,-98.73 351.75,-73.96"/>
<polygon fill="#63b8ff" stroke="#63b8ff" points="352.3,-70.5 341.82,-72.01 350.96,-77.37 352.3,-70.5"/>
</a>
</g>
</g>
<!-- Node10 -->
<g id="Node000010" class="node">
<title>Node10</title>
<g id="a_Node000010"><a xlink:title=" ">
<polygon fill="#e0e0e0" stroke="#999999" points="412,-74 360,-74 360,-55 412,-55 412,-74"/>
<text text-anchor="middle" x="386" y="-62" font-family="Helvetica,sans-Serif" font-size="10.00">sstream</text>
</a>
</g>
</g>
<!-- Node1&#45;&gt;Node10 -->
<g id="edge66_Node000001_Node000010" class="edge">
<title>Node1&#45;&gt;Node10</title>
<g id="a_edge66_Node000001_Node000010"><a xlink:title=" ">
<path fill="none" stroke="#63b8ff" d="M698.9,-123.63C629.78,-112.69 523.6,-95.03 422.42,-74.19"/>
<polygon fill="#63b8ff" stroke="#63b8ff" points="422.83,-70.7 412.33,-72.09 421.41,-77.55 422.83,-70.7"/>
</a>
</g>
</g>
<!-- Node11 -->
<g id="Node000011" class="node">
<title>Node11</title>
<g id="a_Node000011"><a xlink:title=" ">
<polygon fill="#e0e0e0" stroke="#999999" points="480,-74 430,-74 430,-55 480,-55 480,-74"/>
<text text-anchor="middle" x="455" y="-62" font-family="Helvetica,sans-Serif" font-size="10.00">iomanip</text>
</a>
</g>
</g>
<!-- Node1&#45;&gt;Node11 -->
<g id="edge67_Node000001_Node000011" class="edge">
<title>Node1&#45;&gt;Node11</title>
<g id="a_edge67_Node000001_Node000011"><a xlink:title=" ">
<path fill="none" stroke="#63b8ff" d="M699,-119.81C643.95,-108.35 566.75,-91.93 490.06,-74.19"/>
<polygon fill="#63b8ff" stroke="#63b8ff" points="490.76,-70.76 480.23,-71.91 489.18,-77.58 490.76,-70.76"/>
</a>
</g>
</g>
<!-- Node12 -->
<g id="Node000012" class="node">
<title>Node12</title>
<g id="a_Node000012"><a xlink:title=" ">
<polygon fill="#e0e0e0" stroke="#999999" points="542,-74 498,-74 498,-55 542,-55 542,-74"/>
<text text-anchor="middle" x="520" y="-62" font-family="Helvetica,sans-Serif" font-size="10.00">thread</text>
</a>
</g>
</g>
<!-- Node1&#45;&gt;Node12 -->
<g id="edge68_Node000001_Node000012" class="edge">
<title>Node1&#45;&gt;Node12</title>
<g id="a_edge68_Node000001_Node000012"><a xlink:title=" ">
<path fill="none" stroke="#63b8ff" d="M698.8,-114.62C649.89,-101.18 588.31,-84.27 551.67,-74.2"/>
<polygon fill="#63b8ff" stroke="#63b8ff" points="552.59,-70.82 542.02,-71.55 550.74,-77.57 552.59,-70.82"/>
</a>
</g>
</g>
<!-- Node13 -->
<g id="Node000013" class="node">
<title>Node13</title>
<g id="a_Node000013"><a xlink:title=" ">
<polygon fill="#e0e0e0" stroke="#999999" points="606,-74 560,-74 560,-55 606,-55 606,-74"/>
<text text-anchor="middle" x="583" y="-62" font-family="Helvetica,sans-Serif" font-size="10.00">chrono</text>
</a>
</g>
</g>
<!-- Node1&#45;&gt;Node13 -->
<g id="edge69_Node000001_Node000013" class="edge">
<title>Node1&#45;&gt;Node13</title>
<g id="a_edge69_Node000001_Node000013"><a xlink:title=" ">
<path fill="none" stroke="#63b8ff" d="M704.41,-109.91C674.14,-98.84 639.98,-86.34 615.63,-77.43"/>
<polygon fill="#63b8ff" stroke="#63b8ff" points="616.75,-74.12 606.16,-73.97 614.34,-80.69 616.75,-74.12"/>
</a>
</g>
</g>
<!-- Node14 -->
<g id="Node000014" class="node">
<title>Node14</title>
<g id="a_Node000014"><a xlink:title=" ">
<polygon fill="#e0e0e0" stroke="#999999" points="670,-74 624,-74 624,-55 670,-55 670,-74"/>
<text text-anchor="middle" x="647" y="-62" font-family="Helvetica,sans-Serif" font-size="10.00">atomic</text>
</a>
</g>
</g>
<!-- Node1&#45;&gt;Node14 -->
<g id="edge70_Node000001_Node000014" class="edge">
<title>Node1&#45;&gt;Node14</title>
<g id="a_edge70_Node000001_Node000014"><a xlink:title=" ">
<path fill="none" stroke="#63b8ff" d="M727.51,-109.91C708.71,-99.54 687.66,-87.93 671.8,-79.18"/>
<polygon fill="#63b8ff" stroke="#63b8ff" points="673.1,-75.9 662.66,-74.14 669.72,-82.03 673.1,-75.9"/>
</a>
</g>
</g>
<!-- Node15 -->
<g id="Node000015" class="node">
<title>Node15</title>
<g id="a_Node000015"><a xlink:title=" ">
<polygon fill="#e0e0e0" stroke="#999999" points="732,-74 688,-74 688,-55 732,-55 732,-74"/>
<text text-anchor="middle" x="710" y="-62" font-family="Helvetica,sans-Serif" font-size="10.00">mutex</text>
</a>
</g>
</g>
<!-- Node1&#45;&gt;Node15 -->
<g id="edge71_Node000001_Node000015" class="edge">
<title>Node1&#45;&gt;Node15</title>
<g id="a_edge71_Node000001_Node000015"><a xlink:title=" ">
<path fill="none" stroke="#63b8ff" d="M750.26,-109.91C741.8,-100.58 732.42,-90.24 724.85,-81.88"/>
<polygon fill="#63b8ff" stroke="#63b8ff" points="727.29,-79.36 717.98,-74.3 722.1,-84.06 727.29,-79.36"/>
</a>
</g>
</g>
<!-- Node16 -->
<g id="Node000016" class="node">
<title>Node16</title>
<g id="a_Node000016"><a xlink:title=" ">
<polygon fill="#e0e0e0" stroke="#999999" points="795.5,-74 750.5,-74 750.5,-55 795.5,-55 795.5,-74"/>
<text text-anchor="middle" x="773" y="-62" font-family="Helvetica,sans-Serif" font-size="10.00">cstdlib</text>
</a>
</g>
</g>
<!-- Node1&#45;&gt;Node16 -->
<g id="edge72_Node000001_Node000016" class="edge">
<title>Node1&#45;&gt;Node16</title>
<g id="a_edge72_Node000001_Node000016"><a xlink:title=" ">
<path fill="none" stroke="#63b8ff" d="M773,-109.91C773,-101.55 773,-92.38 773,-84.55"/>
<polygon fill="#63b8ff" stroke="#63b8ff" points="776.5,-84.3 773,-74.3 769.5,-84.3 776.5,-84.3"/>
</a>
</g>
</g>
<!-- Node17 -->
<g id="Node000017" class="node">
<title>Node17</title>
<g id="a_Node000017"><a xlink:title=" ">
<polygon fill="#e0e0e0" stroke="#999999" points="860,-74 814,-74 814,-55 860,-55 860,-74"/>
<text text-anchor="middle" x="837" y="-62" font-family="Helvetica,sans-Serif" font-size="10.00">cstring</text>
</a>
</g>
</g>
<!-- Node1&#45;&gt;Node17 -->
<g id="edge73_Node000001_Node000017" class="edge">
<title>Node1&#45;&gt;Node17</title>
<g id="a_edge73_Node000001_Node000017"><a xlink:title=" ">
<path fill="none" stroke="#63b8ff" d="M796.11,-109.91C804.7,-100.58 814.22,-90.24 821.91,-81.88"/>
<polygon fill="#63b8ff" stroke="#63b8ff" points="824.69,-84.03 828.89,-74.3 819.55,-79.29 824.69,-84.03"/>
</a>
</g>
</g>
<!-- Node18 -->
<g id="Node000018" class="node">
<title>Node18</title>
<g id="a_Node000018"><a xlink:title=" ">
<polygon fill="#e0e0e0" stroke="#999999" points="919.5,-74 878.5,-74 878.5,-55 919.5,-55 919.5,-74"/>
<text text-anchor="middle" x="899" y="-62" font-family="Helvetica,sans-Serif" font-size="10.00">ctime</text>
</a>
</g>
</g>
<!-- Node1&#45;&gt;Node18 -->
<g id="edge74_Node000001_Node000018" class="edge">
<title>Node1&#45;&gt;Node18</title>
<g id="a_edge74_Node000001_Node000018"><a xlink:title=" ">
<path fill="none" stroke="#63b8ff" d="M818.49,-109.91C837.29,-99.54 858.34,-87.93 874.2,-79.18"/>
<polygon fill="#63b8ff" stroke="#63b8ff" points="876.28,-82.03 883.34,-74.14 872.9,-75.9 876.28,-82.03"/>
</a>
</g>
</g>
<!-- Node19 -->
<g id="Node000019" class="node">
<title>Node19</title>
<g id="a_Node000019"><a xlink:title=" ">
<polygon fill="#e0e0e0" stroke="#999999" points="1008.5,-74 937.5,-74 937.5,-55 1008.5,-55 1008.5,-74"/>
<text text-anchor="middle" x="973" y="-62" font-family="Helvetica,sans-Serif" font-size="10.00">sys/ptrace.h</text>
</a>
</g>
</g>
<!-- Node1&#45;&gt;Node19 -->
<g id="edge76_Node000001_Node000019" class="edge">
<title>Node1&#45;&gt;Node19</title>
<g id="a_edge76_Node000001_Node000019"><a xlink:title=" ">
<path fill="none" stroke="#63b8ff" d="M845.2,-109.91C877.01,-98.86 912.89,-86.39 938.52,-77.48"/>
<polygon fill="#63b8ff" stroke="#63b8ff" points="939.85,-80.72 948.15,-74.14 937.55,-74.11 939.85,-80.72"/>
</a>
</g>
</g>
<!-- Node20 -->
<g id="Node000020" class="node">
<title>Node20</title>
<g id="a_Node000020"><a xlink:title=" ">
<polygon fill="#e0e0e0" stroke="#999999" points="1077.5,-74 1026.5,-74 1026.5,-55 1077.5,-55 1077.5,-74"/>
<text text-anchor="middle" x="1052" y="-62" font-family="Helvetica,sans-Serif" font-size="10.00">unistd.h</text>
</a>
</g>
</g>
<!-- Node1&#45;&gt;Node20 -->
<g id="edge77_Node000001_Node000020" class="edge">
<title>Node1&#45;&gt;Node20</title>
<g id="a_edge77_Node000001_Node000020"><a xlink:title=" ">
<path fill="none" stroke="#63b8ff" d="M847.25,-116.53C893.37,-105.06 954.15,-89.93 1016.38,-74.4"/>
<polygon fill="#63b8ff" stroke="#63b8ff" points="1017.53,-77.72 1026.38,-71.91 1015.83,-70.93 1017.53,-77.72"/>
</a>
</g>
</g>
<!-- Node21 -->
<g id="Node000021" class="node">
<title>Node21</title>
<g id="a_Node000021"><a xlink:title=" ">
<polygon fill="#e0e0e0" stroke="#999999" points="1156,-74 1096,-74 1096,-55 1156,-55 1156,-74"/>
<text text-anchor="middle" x="1126" y="-62" font-family="Helvetica,sans-Serif" font-size="10.00">sys/stat.h</text>
</a>
</g>
</g>
<!-- Node1&#45;&gt;Node21 -->
<g id="edge78_Node000001_Node000021" class="edge">
<title>Node1&#45;&gt;Node21</title>
<g id="a_edge78_Node000001_Node000021"><a xlink:title=" ">
<path fill="none" stroke="#63b8ff" d="M847.01,-121.11C908.39,-109.48 998.23,-92.2 1085.93,-74.19"/>
<polygon fill="#63b8ff" stroke="#63b8ff" points="1086.69,-77.6 1095.78,-72.16 1085.28,-70.75 1086.69,-77.6"/>
</a>
</g>
</g>
<!-- Node22 -->
<g id="Node000022" class="node">
<title>Node22</title>
<g id="a_Node000022"><a xlink:title=" ">
<polygon fill="#e0e0e0" stroke="#999999" points="1217.5,-74 1174.5,-74 1174.5,-55 1217.5,-55 1217.5,-74"/>
<text text-anchor="middle" x="1196" y="-62" font-family="Helvetica,sans-Serif" font-size="10.00">fcntl.h</text>
</a>
</g>
</g>
<!-- Node1&#45;&gt;Node22 -->
<g id="edge79_Node000001_Node000022" class="edge">
<title>Node1&#45;&gt;Node22</title>
<g id="a_edge79_Node000001_Node000022"><a xlink:title=" ">
<path fill="none" stroke="#63b8ff" d="M847.15,-126.01C924.16,-116.09 1048.21,-98.51 1164.6,-73.86"/>
<polygon fill="#63b8ff" stroke="#63b8ff" points="1165.35,-77.27 1174.4,-71.76 1163.89,-70.43 1165.35,-77.27"/>
</a>
</g>
</g>
<!-- Node23 -->
<g id="Node000023" class="node">
<title>Node23</title>
<g id="a_Node000023"><a xlink:title=" ">
<polygon fill="#e0e0e0" stroke="#999999" points="1280.5,-74 1235.5,-74 1235.5,-55 1280.5,-55 1280.5,-74"/>
<text text-anchor="middle" x="1258" y="-62" font-family="Helvetica,sans-Serif" font-size="10.00">dlfcn.h</text>
</a>
</g>
</g>
<!-- Node1&#45;&gt;Node23 -->
<g id="edge80_Node000001_Node000023" class="edge">
<title>Node1&#45;&gt;Node23</title>
<g id="a_edge80_Node000001_Node000023"><a xlink:title=" ">
<path fill="none" stroke="#63b8ff" d="M847.03,-128.13C935.2,-119.26 1087,-101.82 1225.45,-74.09"/>
<polygon fill="#63b8ff" stroke="#63b8ff" points="1226.29,-77.49 1235.4,-72.07 1224.9,-70.63 1226.29,-77.49"/>
</a>
</g>
</g>
<!-- Node24 -->
<g id="Node000024" class="node">
<title>Node24</title>
<g id="a_Node000024"><a xlink:title=" ">
<polygon fill="#e0e0e0" stroke="#999999" points="1339,-74 1299,-74 1299,-55 1339,-55 1339,-74"/>
<text text-anchor="middle" x="1319" y="-62" font-family="Helvetica,sans-Serif" font-size="10.00">link.h</text>
</a>
</g>
</g>
<!-- Node1&#45;&gt;Node24 -->
<g id="edge81_Node000001_Node000024" class="edge">
<title>Node1&#45;&gt;Node24</title>
<g id="a_edge81_Node000001_Node000024"><a xlink:title=" ">
<path fill="none" stroke="#63b8ff" d="M847.25,-130.17C946.16,-122.86 1126.55,-106.49 1288.67,-73.95"/>
<polygon fill="#63b8ff" stroke="#63b8ff" points="1289.73,-77.3 1298.83,-71.88 1288.33,-70.45 1289.73,-77.3"/>
</a>
</g>
</g>
<!-- Node25 -->
<g id="Node000025" class="node">
<title>Node25</title>
<g id="a_Node000025"><a xlink:title=" ">
<polygon fill="#e0e0e0" stroke="#999999" points="1392.5,-74 1357.5,-74 1357.5,-55 1392.5,-55 1392.5,-74"/>
<text text-anchor="middle" x="1375" y="-62" font-family="Helvetica,sans-Serif" font-size="10.00">elf.h</text>
</a>
</g>
</g>
<!-- Node1&#45;&gt;Node25 -->
<g id="edge82_Node000001_Node000025" class="edge">
<title>Node1&#45;&gt;Node25</title>
<g id="a_edge82_Node000001_Node000025"><a xlink:title=" ">
<path fill="none" stroke="#63b8ff" d="M847.25,-131.85C955.58,-126.22 1163.15,-111.48 1347.54,-73.64"/>
<polygon fill="#63b8ff" stroke="#63b8ff" points="1348.34,-77.05 1357.41,-71.59 1346.91,-70.2 1348.34,-77.05"/>
</a>
</g>
</g>
<!-- Node26 -->
<g id="Node000026" class="node">
<title>Node26</title>
<g id="a_Node000026"><a xlink:title=" ">
<polygon fill="#e0e0e0" stroke="#999999" points="1487.5,-74 1410.5,-74 1410.5,-55 1487.5,-55 1487.5,-74"/>
<text text-anchor="middle" x="1449" y="-62" font-family="Helvetica,sans-Serif" font-size="10.00">openssl/sha.h</text>
</a>
</g>
</g>
<!-- Node1&#45;&gt;Node26 -->
<g id="edge83_Node000001_Node000026" class="edge">
<title>Node1&#45;&gt;Node26</title>
<g id="a_edge83_Node000001_Node000026"><a xlink:title=" ">
<path fill="none" stroke="#63b8ff" d="M847.31,-129.78C963.33,-121.2 1194.7,-102.31 1400.24,-74.15"/>
<polygon fill="#63b8ff" stroke="#63b8ff" points="1400.88,-77.59 1410.31,-72.76 1399.93,-70.66 1400.88,-77.59"/>
</a>
</g>
</g>
<!-- Node27 -->
<g id="Node000027" class="node">
<title>Node27</title>
<g id="a_Node000027"><a xlink:title=" ">
<polygon fill="#e0e0e0" stroke="#999999" points="1582,-74 1506,-74 1506,-55 1582,-55 1582,-74"/>
<text text-anchor="middle" x="1544" y="-62" font-family="Helvetica,sans-Serif" font-size="10.00">openssl/evp.h</text>
</a>
</g>
</g>
<!-- Node1&#45;&gt;Node27 -->
<g id="edge84_Node000001_Node000027" class="edge">
<title>Node1&#45;&gt;Node27</title>
<g id="a_edge84_Node000001_Node000027"><a xlink:title=" ">
<path fill="none" stroke="#63b8ff" d="M847.25,-131.08C976.87,-123.71 1252.97,-105.76 1495.75,-74.04"/>
<polygon fill="#63b8ff" stroke="#63b8ff" points="1496.37,-77.49 1505.83,-72.72 1495.46,-70.55 1496.37,-77.49"/>
</a>
</g>
</g>
<!-- Node3 -->
<g id="Node000003" class="node">
<title>Node3</title>
<g id="a_Node000003"><a xlink:title=" ">
<polygon fill="#e0e0e0" stroke="#999999" points="42.5,-19 1.5,-19 1.5,0 42.5,0 42.5,-19"/>
<text text-anchor="middle" x="22" y="-7" font-family="Helvetica,sans-Serif" font-size="10.00">string</text>
</a>
</g>
</g>
<!-- Node2&#45;&gt;Node3 -->
<g id="edge58_Node000002_Node000003" class="edge">
<title>Node2&#45;&gt;Node3</title>
<g id="a_edge58_Node000002_Node000003"><a xlink:title=" ">
<path fill="none" stroke="#63b8ff" d="M122.72,-54.98C103.33,-46.42 73.19,-33.11 50.93,-23.28"/>
<polygon fill="#63b8ff" stroke="#63b8ff" points="52.19,-20.01 41.63,-19.17 49.36,-26.41 52.19,-20.01"/>
</a>
</g>
</g>
<!-- Node4 -->
<g id="Node000004" class="node">
<title>Node4</title>
<g id="a_Node000004"><a xlink:title=" ">
<polygon fill="#e0e0e0" stroke="#999999" points="107,-19 61,-19 61,0 107,0 107,-19"/>
<text text-anchor="middle" x="84" y="-7" font-family="Helvetica,sans-Serif" font-size="10.00">cstdint</text>
</a>
</g>
</g>
<!-- Node2&#45;&gt;Node4 -->
<g id="edge59_Node000002_Node000004" class="edge">
<title>Node2&#45;&gt;Node4</title>
<g id="a_edge59_Node000002_Node000004"><a xlink:title=" ">
<path fill="none" stroke="#63b8ff" d="M132.68,-54.98C124.19,-47.23 111.44,-35.58 101.12,-26.14"/>
<polygon fill="#63b8ff" stroke="#63b8ff" points="103.23,-23.33 93.49,-19.17 98.51,-28.5 103.23,-23.33"/>
</a>
</g>
</g>
<!-- Node5 -->
<g id="Node000005" class="node">
<title>Node5</title>
<g id="a_Node000005"><a xlink:title=" ">
<polygon fill="#e0e0e0" stroke="#999999" points="183,-19 125,-19 125,0 183,0 183,-19"/>
<text text-anchor="middle" x="154" y="-7" font-family="Helvetica,sans-Serif" font-size="10.00">functional</text>
</a>
</g>
</g>
<!-- Node2&#45;&gt;Node5 -->
<g id="edge60_Node000002_Node000005" class="edge">
<title>Node2&#45;&gt;Node5</title>
<g id="a_edge60_Node000002_Node000005"><a xlink:title=" ">
<path fill="none" stroke="#63b8ff" d="M143.98,-54.75C145.57,-47.72 147.86,-37.62 149.85,-28.84"/>
<polygon fill="#63b8ff" stroke="#63b8ff" points="153.26,-29.62 152.06,-19.09 146.43,-28.07 153.26,-29.62"/>
</a>
</g>
</g>
<!-- Node2&#45;&gt;Node6 -->
<g id="edge61_Node000002_Node000006" class="edge">
<title>Node2&#45;&gt;Node6</title>
<g id="a_edge61_Node000002_Node000006"><a xlink:title=" ">
<path fill="none" stroke="#63b8ff" d="M154.85,-54.98C167.14,-46.84 185.91,-34.41 200.48,-24.76"/>
<polygon fill="#63b8ff" stroke="#63b8ff" points="202.51,-27.61 208.91,-19.17 198.64,-21.78 202.51,-27.61"/>
</a>
</g>
</g>
<!-- Node7&#45;&gt;Node3 -->
<g id="edge63_Node000007_Node000003" class="edge">
<title>Node7&#45;&gt;Node3</title>
<g id="a_edge63_Node000007_Node000003"><a xlink:title=" ">
<path fill="none" stroke="#63b8ff" d="M41.2,-54.75C38.09,-47.57 33.58,-37.18 29.71,-28.27"/>
<polygon fill="#63b8ff" stroke="#63b8ff" points="32.92,-26.87 25.73,-19.09 26.5,-29.66 32.92,-26.87"/>
</a>
</g>
</g>
</g>
</svg>
