<?xml version="1.0" encoding="UTF-8" standalone="no"?>
<!DOCTYPE svg PUBLIC "-//W3C//DTD SVG 1.1//EN"
 "http://www.w3.org/Graphics/SVG/1.1/DTD/svg11.dtd">
<!-- Generated by graphviz version 6.0.2 (20221011.1828)
 -->
<!-- Title: src/LocalSports/src/rasp.cpp Pages: 1 -->
<svg width="1590pt" height="148pt"
 viewBox="0.00 0.00 1590.00 148.00" xmlns="http://www.w3.org/2000/svg" xmlns:xlink="http://www.w3.org/1999/xlink">
<g id="graph0" class="graph" transform="scale(1 1) rotate(0) translate(4 144)">
<title>src/LocalSports/src/rasp.cpp</title>
<!-- Node1 -->
<g id="Node000001" class="node">
<title>Node1</title>
<g id="a_Node000001"><a xlink:title=" ">
<polygon fill="#999999" stroke="#666666" points="823.5,-140 722.5,-140 722.5,-110 823.5,-110 823.5,-140"/>
<text text-anchor="start" x="730.5" y="-128" font-family="Helvetica,sans-Serif" font-size="10.00">src/LocalSports/src</text>
<text text-anchor="middle" x="773" y="-117" font-family="Helvetica,sans-Serif" font-size="10.00">/rasp.cpp</text>
</a>
</g>
</g>
<!-- Node2 -->
<g id="Node000002" class="node">
<title>Node2</title>
<g id="a_Node000002"><a xlink:href="$rasp_8h.html" xlink:title=" ">
<polygon fill="white" stroke="#666666" points="164,-74 120,-74 120,-55 164,-55 164,-74"/>
<text text-anchor="middle" x="142" y="-62" font-family="Helvetica,sans-Serif" font-size="10.00">rasp.h</text>
</a>
</g>
</g>
<!-- Node1&#45;&gt;Node2 -->
<g id="edge57_Node000001_Node000002" class="edge">
<title>Node1&#45;&gt;Node2</title>
<g id="a_edge57_Node000001_Node000002"><a xlink:title=" ">
<path fill="none" stroke="#63b8ff" d="M722.15,-122.26C618.98,-118.19 377.89,-105.82 178,-74 176.75,-73.8 175.48,-73.58 174.2,-73.35"/>
<polygon fill="#63b8ff" stroke="#63b8ff" points="174.87,-69.91 164.37,-71.32 173.45,-76.77 174.87,-69.91"/>
</a>
</g>
</g>
<!-- Node6 -->
<g id="Node000006" class="node">
<title>Node6</title>
<g id="a_Node000006"><a xlink:title=" ">
<polygon fill="#e0e0e0" stroke="#999999" points="243,-19 201,-19 201,0 243,0 243,-19"/>
<text text-anchor="middle" x="222" y="-7" font-family="Helvetica,sans-Serif" font-size="10.00">vector</text>
</a>
</g>
</g>
<!-- Node1&#45;&gt;Node6 -->
<g id="edge75_Node000001_Node000006" class="edge">
<title>Node1&#45;&gt;Node6</title>
<g id="a_edge75_Node000001_Node000006"><a xlink:title=" ">
<path fill="none" stroke="#63b8ff" d="M722.4,-123.31C590.71,-120.98 245.18,-111.35 211,-74 199.82,-61.78 205.25,-42.45 211.82,-28.33"/>
<polygon fill="#63b8ff" stroke="#63b8ff" points="215.09,-29.63 216.58,-19.14 208.87,-26.41 215.09,-29.63"/>
</a>
</g>
</g>
<!-- Node7 -->
<g id="Node000007" class="node">
<title>Node7</title>
<g id="a_Node000007"><a xlink:href="$security__config_8h.html" xlink:title=" ">
<polygon fill="white" stroke="#666666" points="90,-74 0,-74 0,-55 90,-55 90,-74"/>
<text text-anchor="middle" x="45" y="-62" font-family="Helvetica,sans-Serif" font-size="10.00">security_config.h</text>
</a>
</g>
</g>
<!-- Node1&#45;&gt;Node7 -->
<g id="edge62_Node000001_Node000007" class="edge">
<title>Node1&#45;&gt;Node7</title>
<g id="a_edge62_Node000001_Node000007"><a xlink:title=" ">
<path fill="none" stroke="#63b8ff" d="M722.26,-121.08C611.26,-114.5 338.6,-97.24 111,-74 107.5,-73.64 103.91,-73.25 100.28,-72.84"/>
<polygon fill="#63b8ff" stroke="#63b8ff" points="100.39,-69.33 90.05,-71.62 99.57,-76.28 100.39,-69.33"/>
</a>
</g>
</g>
<!-- Node8 -->
<g id="Node000008" class="node">
<title>Node8</title>
<g id="a_Node000008"><a xlink:title=" ">
<polygon fill="#e0e0e0" stroke="#999999" points="274,-74 220,-74 220,-55 274,-55 274,-74"/>
<text text-anchor="middle" x="247" y="-62" font-family="Helvetica,sans-Serif" font-size="10.00">iostream</text>
</a>
</g>
</g>
<!-- Node1&#45;&gt;Node8 -->
<g id="edge64_Node000001_Node000008" class="edge">
<title>Node1&#45;&gt;Node8</title>
<g id="a_edge64_Node000001_Node000008"><a xlink:title=" ">
<path fill="none" stroke="#63b8ff" d="M722.39,-120.9C633.32,-114.99 442.92,-100.27 284,-74 283.9,-73.98 283.8,-73.97 283.69,-73.95"/>
<polygon fill="#63b8ff" stroke="#63b8ff" points="284.48,-70.54 274,-72.11 283.17,-77.41 284.48,-70.54"/>
</a>
</g>
</g>
<!-- Node9 -->
<g id="Node000009" class="node">
<title>Node9</title>
<g id="a_Node000009"><a xlink:title=" ">
<polygon fill="#e0e0e0" stroke="#999999" points="341.5,-74 292.5,-74 292.5,-55 341.5,-55 341.5,-74"/>
<text text-anchor="middle" x="317" y="-62" font-family="Helvetica,sans-Serif" font-size="10.00">fstream</text>
</a>
</g>
</g>
<!-- Node1&#45;&gt;Node9 -->
<g id="edge65_Node000001_Node000009" class="edge">
<title>Node1&#45;&gt;Node9</title>
<g id="a_edge65_Node000001_Node000009"><a xlink:title=" ">
<path fill="none" stroke="#63b8ff" d="M722.35,-120.09C644.67,-113.64 491.38,-99.1 351.83,-73.92"/>
<polygon fill="#63b8ff" stroke="#63b8ff" points="352.27,-70.44 341.8,-72.09 351.01,-77.33 352.27,-70.44"/>
</a>
</g>
</g>
<!-- Node10 -->
<g id="Node000010" class="node">
<title>Node10</title>
<g id="a_Node000010"><a xlink:title=" ">
<polygon fill="#e0e0e0" stroke="#999999" points="412,-74 360,-74 360,-55 412,-55 412,-74"/>
<text text-anchor="middle" x="386" y="-62" font-family="Helvetica,sans-Serif" font-size="10.00">sstream</text>
</a>
</g>
</g>
<!-- Node1&#45;&gt;Node10 -->
<g id="edge66_Node000001_Node000010" class="edge">
<title>Node1&#45;&gt;Node10</title>
<g id="a_edge66_Node000001_Node000010"><a xlink:title=" ">
<path fill="none" stroke="#63b8ff" d="M722.32,-118.37C655.71,-110.62 534.88,-95.38 422.47,-74.12"/>
<polygon fill="#63b8ff" stroke="#63b8ff" points="422.79,-70.62 412.31,-72.18 421.48,-77.5 422.79,-70.62"/>
</a>
</g>
</g>
<!-- Node11 -->
<g id="Node000011" class="node">
<title>Node11</title>
<g id="a_Node000011"><a xlink:title=" ">
<polygon fill="#e0e0e0" stroke="#999999" points="480,-74 430,-74 430,-55 480,-55 480,-74"/>
<text text-anchor="middle" x="455" y="-62" font-family="Helvetica,sans-Serif" font-size="10.00">iomanip</text>
</a>
</g>
</g>
<!-- Node1&#45;&gt;Node11 -->
<g id="edge67_Node000001_Node000011" class="edge">
<title>Node1&#45;&gt;Node11</title>
<g id="a_edge67_Node000001_Node000011"><a xlink:title=" ">
<path fill="none" stroke="#63b8ff" d="M722.26,-116.18C667.4,-107.47 577.17,-92.44 490.24,-74.14"/>
<polygon fill="#63b8ff" stroke="#63b8ff" points="490.71,-70.66 480.2,-72.01 489.26,-77.51 490.71,-70.66"/>
</a>
</g>
</g>
<!-- Node12 -->
<g id="Node000012" class="node">
<title>Node12</title>
<g id="a_Node000012"><a xlink:title=" ">
<polygon fill="#e0e0e0" stroke="#999999" points="542,-74 498,-74 498,-55 542,-55 542,-74"/>
<text text-anchor="middle" x="520" y="-62" font-family="Helvetica,sans-Serif" font-size="10.00">thread</text>
</a>
</g>
</g>
<!-- Node1&#45;&gt;Node12 -->
<g id="edge68_Node000001_Node000012" class="edge">
<title>Node1&#45;&gt;Node12</title>
<g id="a_edge68_Node000001_Node000012"><a xlink:title=" ">
<path fill="none" stroke="#63b8ff" d="M722.14,-113.24C679.25,-104.01 616,-90.04 552.15,-74.2"/>
<polygon fill="#63b8ff" stroke="#63b8ff" points="552.87,-70.78 542.32,-71.75 551.17,-77.57 552.87,-70.78"/>
</a>
</g>
</g>
<!-- Node13 -->
<g id="Node000013" class="node">
<title>Node13</title>
<g id="a_Node000013"><a xlink:title=" ">
<polygon fill="#e0e0e0" stroke="#999999" points="606,-74 560,-74 560,-55 606,-55 606,-74"/>
<text text-anchor="middle" x="583" y="-62" font-family="Helvetica,sans-Serif" font-size="10.00">chrono</text>
</a>
</g>
</g>
<!-- Node1&#45;&gt;Node13 -->
<g id="edge69_Node000001_Node000013" class="edge">
<title>Node1&#45;&gt;Node13</title>
<g id="a_edge69_Node000001_Node000013"><a xlink:title=" ">
<path fill="none" stroke="#63b8ff" d="M727.49,-109.99C693.17,-99.42 646.88,-85.17 616.04,-75.67"/>
<polygon fill="#63b8ff" stroke="#63b8ff" points="616.8,-72.25 606.22,-72.65 614.74,-78.94 616.8,-72.25"/>
</a>
</g>
</g>
<!-- Node14 -->
<g id="Node000014" class="node">
<title>Node14</title>
<g id="a_Node000014"><a xlink:title=" ">
<polygon fill="#e0e0e0" stroke="#999999" points="670,-74 624,-74 624,-55 670,-55 670,-74"/>
<text text-anchor="middle" x="647" y="-62" font-family="Helvetica,sans-Serif" font-size="10.00">atomic</text>
</a>
</g>
</g>
<!-- Node1&#45;&gt;Node14 -->
<g id="edge70_Node000001_Node000014" class="edge">
<title>Node1&#45;&gt;Node14</title>
<g id="a_edge70_Node000001_Node000014"><a xlink:title=" ">
<path fill="none" stroke="#63b8ff" d="M742.82,-109.99C722.17,-100.4 695,-87.79 674.87,-78.44"/>
<polygon fill="#63b8ff" stroke="#63b8ff" points="676.15,-75.18 665.61,-74.14 673.2,-81.52 676.15,-75.18"/>
</a>
</g>
</g>
<!-- Node15 -->
<g id="Node000015" class="node">
<title>Node15</title>
<g id="a_Node000015"><a xlink:title=" ">
<polygon fill="#e0e0e0" stroke="#999999" points="732,-74 688,-74 688,-55 732,-55 732,-74"/>
<text text-anchor="middle" x="710" y="-62" font-family="Helvetica,sans-Serif" font-size="10.00">mutex</text>
</a>
</g>
</g>
<!-- Node1&#45;&gt;Node15 -->
<g id="edge71_Node000001_Node000015" class="edge">
<title>Node1&#45;&gt;Node15</title>
<g id="a_edge71_Node000001_Node000015"><a xlink:title=" ">
<path fill="none" stroke="#63b8ff" d="M757.75,-109.84C748.42,-101.17 736.47,-90.08 726.85,-81.15"/>
<polygon fill="#63b8ff" stroke="#63b8ff" points="729.15,-78.51 719.44,-74.27 724.39,-83.64 729.15,-78.51"/>
</a>
</g>
</g>
<!-- Node16 -->
<g id="Node000016" class="node">
<title>Node16</title>
<g id="a_Node000016"><a xlink:title=" ">
<polygon fill="#e0e0e0" stroke="#999999" points="795.5,-74 750.5,-74 750.5,-55 795.5,-55 795.5,-74"/>
<text text-anchor="middle" x="773" y="-62" font-family="Helvetica,sans-Serif" font-size="10.00">cstdlib</text>
</a>
</g>
</g>
<!-- Node1&#45;&gt;Node16 -->
<g id="edge72_Node000001_Node000016" class="edge">
<title>Node1&#45;&gt;Node16</title>
<g id="a_edge72_Node000001_Node000016"><a xlink:title=" ">
<path fill="none" stroke="#63b8ff" d="M773,-109.84C773,-102.21 773,-92.7 773,-84.45"/>
<polygon fill="#63b8ff" stroke="#63b8ff" points="776.5,-84.27 773,-74.27 769.5,-84.27 776.5,-84.27"/>
</a>
</g>
</g>
<!-- Node17 -->
<g id="Node000017" class="node">
<title>Node17</title>
<g id="a_Node000017"><a xlink:title=" ">
<polygon fill="#e0e0e0" stroke="#999999" points="860,-74 814,-74 814,-55 860,-55 860,-74"/>
<text text-anchor="middle" x="837" y="-62" font-family="Helvetica,sans-Serif" font-size="10.00">cstring</text>
</a>
</g>
</g>
<!-- Node1&#45;&gt;Node17 -->
<g id="edge73_Node000001_Node000017" class="edge">
<title>Node1&#45;&gt;Node17</title>
<g id="a_edge73_Node000001_Node000017"><a xlink:title=" ">
<path fill="none" stroke="#63b8ff" d="M788.49,-109.84C797.97,-101.17 810.11,-90.08 819.88,-81.15"/>
<polygon fill="#63b8ff" stroke="#63b8ff" points="822.39,-83.6 827.41,-74.27 817.67,-78.43 822.39,-83.6"/>
</a>
</g>
</g>
<!-- Node18 -->
<g id="Node000018" class="node">
<title>Node18</title>
<g id="a_Node000018"><a xlink:title=" ">
<polygon fill="#e0e0e0" stroke="#999999" points="919.5,-74 878.5,-74 878.5,-55 919.5,-55 919.5,-74"/>
<text text-anchor="middle" x="899" y="-62" font-family="Helvetica,sans-Serif" font-size="10.00">ctime</text>
</a>
</g>
</g>
<!-- Node1&#45;&gt;Node18 -->
<g id="edge74_Node000001_Node000018" class="edge">
<title>Node1&#45;&gt;Node18</title>
<g id="a_edge74_Node000001_Node000018"><a xlink:title=" ">
<path fill="none" stroke="#63b8ff" d="M803.18,-109.99C823.83,-100.4 851,-87.79 871.13,-78.44"/>
<polygon fill="#63b8ff" stroke="#63b8ff" points="872.8,-81.52 880.39,-74.14 869.85,-75.18 872.8,-81.52"/>
</a>
</g>
</g>
<!-- Node19 -->
<g id="Node000019" class="node">
<title>Node19</title>
<g id="a_Node000019"><a xlink:title=" ">
<polygon fill="#e0e0e0" stroke="#999999" points="1008.5,-74 937.5,-74 937.5,-55 1008.5,-55 1008.5,-74"/>
<text text-anchor="middle" x="973" y="-62" font-family="Helvetica,sans-Serif" font-size="10.00">sys/ptrace.h</text>
</a>
</g>
</g>
<!-- Node1&#45;&gt;Node19 -->
<g id="edge76_Node000001_Node000019" class="edge">
<title>Node1&#45;&gt;Node19</title>
<g id="a_edge76_Node000001_Node000019"><a xlink:title=" ">
<path fill="none" stroke="#63b8ff" d="M820.9,-109.99C855.42,-99.89 901.42,-86.44 933.77,-76.98"/>
<polygon fill="#63b8ff" stroke="#63b8ff" points="935.14,-80.22 943.76,-74.05 933.18,-73.5 935.14,-80.22"/>
</a>
</g>
</g>
<!-- Node20 -->
<g id="Node000020" class="node">
<title>Node20</title>
<g id="a_Node000020"><a xlink:title=" ">
<polygon fill="#e0e0e0" stroke="#999999" points="1077.5,-74 1026.5,-74 1026.5,-55 1077.5,-55 1077.5,-74"/>
<text text-anchor="middle" x="1052" y="-62" font-family="Helvetica,sans-Serif" font-size="10.00">unistd.h</text>
</a>
</g>
</g>
<!-- Node1&#45;&gt;Node20 -->
<g id="edge77_Node000001_Node000020" class="edge">
<title>Node1&#45;&gt;Node20</title>
<g id="a_edge77_Node000001_Node000020"><a xlink:title=" ">
<path fill="none" stroke="#63b8ff" d="M823.82,-114.3C871.23,-105.1 944.19,-90.56 1016.25,-74.33"/>
<polygon fill="#63b8ff" stroke="#63b8ff" points="1017.43,-77.65 1026.41,-72.02 1015.88,-70.82 1017.43,-77.65"/>
</a>
</g>
</g>
<!-- Node21 -->
<g id="Node000021" class="node">
<title>Node21</title>
<g id="a_Node000021"><a xlink:title=" ">
<polygon fill="#e0e0e0" stroke="#999999" points="1156,-74 1096,-74 1096,-55 1156,-55 1156,-74"/>
<text text-anchor="middle" x="1126" y="-62" font-family="Helvetica,sans-Serif" font-size="10.00">sys/stat.h</text>
</a>
</g>
</g>
<!-- Node1&#45;&gt;Node21 -->
<g id="edge78_Node000001_Node000021" class="edge">
<title>Node1&#45;&gt;Node21</title>
<g id="a_edge78_Node000001_Node000021"><a xlink:title=" ">
<path fill="none" stroke="#63b8ff" d="M823.73,-116.83C883.87,-108.12 987.35,-92.51 1085.69,-74.16"/>
<polygon fill="#63b8ff" stroke="#63b8ff" points="1086.62,-77.55 1095.8,-72.26 1085.33,-70.67 1086.62,-77.55"/>
</a>
</g>
</g>
<!-- Node22 -->
<g id="Node000022" class="node">
<title>Node22</title>
<g id="a_Node000022"><a xlink:title=" ">
<polygon fill="#e0e0e0" stroke="#999999" points="1217.5,-74 1174.5,-74 1174.5,-55 1217.5,-55 1217.5,-74"/>
<text text-anchor="middle" x="1196" y="-62" font-family="Helvetica,sans-Serif" font-size="10.00">fcntl.h</text>
</a>
</g>
</g>
<!-- Node1&#45;&gt;Node22 -->
<g id="edge79_Node000001_Node000022" class="edge">
<title>Node1&#45;&gt;Node22</title>
<g id="a_edge79_Node000001_Node000022"><a xlink:title=" ">
<path fill="none" stroke="#63b8ff" d="M823.8,-119.82C896.99,-113.3 1036.42,-98.98 1164.43,-73.82"/>
<polygon fill="#63b8ff" stroke="#63b8ff" points="1165.29,-77.22 1174.41,-71.84 1163.92,-70.36 1165.29,-77.22"/>
</a>
</g>
</g>
<!-- Node23 -->
<g id="Node000023" class="node">
<title>Node23</title>
<g id="a_Node000023"><a xlink:title=" ">
<polygon fill="#e0e0e0" stroke="#999999" points="1280.5,-74 1235.5,-74 1235.5,-55 1280.5,-55 1280.5,-74"/>
<text text-anchor="middle" x="1258" y="-62" font-family="Helvetica,sans-Serif" font-size="10.00">dlfcn.h</text>
</a>
</g>
</g>
<!-- Node1&#45;&gt;Node23 -->
<g id="edge80_Node000001_Node000023" class="edge">
<title>Node1&#45;&gt;Node23</title>
<g id="a_edge80_Node000001_Node000023"><a xlink:title=" ">
<path fill="none" stroke="#63b8ff" d="M823.77,-121.03C906.3,-115.64 1074.69,-102.25 1225.5,-74.02"/>
<polygon fill="#63b8ff" stroke="#63b8ff" points="1226.24,-77.44 1235.41,-72.14 1224.93,-70.56 1226.24,-77.44"/>
</a>
</g>
</g>
<!-- Node24 -->
<g id="Node000024" class="node">
<title>Node24</title>
<g id="a_Node000024"><a xlink:title=" ">
<polygon fill="#e0e0e0" stroke="#999999" points="1339,-74 1299,-74 1299,-55 1339,-55 1339,-74"/>
<text text-anchor="middle" x="1319" y="-62" font-family="Helvetica,sans-Serif" font-size="10.00">link.h</text>
</a>
</g>
</g>
<!-- Node1&#45;&gt;Node24 -->
<g id="edge81_Node000001_Node000024" class="edge">
<title>Node1&#45;&gt;Node24</title>
<g id="a_edge81_Node000001_Node000024"><a xlink:title=" ">
<path fill="none" stroke="#63b8ff" d="M823.72,-122.27C915.14,-118.46 1113.57,-107.05 1288.92,-73.84"/>
<polygon fill="#63b8ff" stroke="#63b8ff" points="1289.68,-77.26 1298.84,-71.94 1288.36,-70.39 1289.68,-77.26"/>
</a>
</g>
</g>
<!-- Node25 -->
<g id="Node000025" class="node">
<title>Node25</title>
<g id="a_Node000025"><a xlink:title=" ">
<polygon fill="#e0e0e0" stroke="#999999" points="1392.5,-74 1357.5,-74 1357.5,-55 1392.5,-55 1392.5,-74"/>
<text text-anchor="middle" x="1375" y="-62" font-family="Helvetica,sans-Serif" font-size="10.00">elf.h</text>
</a>
</g>
</g>
<!-- Node1&#45;&gt;Node25 -->
<g id="edge82_Node000001_Node000025" class="edge">
<title>Node1&#45;&gt;Node25</title>
<g id="a_edge82_Node000001_Node000025"><a xlink:title=" ">
<path fill="none" stroke="#63b8ff" d="M823.51,-123.3C922.56,-121.12 1149.14,-112.23 1347.41,-73.62"/>
<polygon fill="#63b8ff" stroke="#63b8ff" points="1348.29,-77.01 1357.42,-71.64 1346.94,-70.15 1348.29,-77.01"/>
</a>
</g>
</g>
<!-- Node26 -->
<g id="Node000026" class="node">
<title>Node26</title>
<g id="a_Node000026"><a xlink:title=" ">
<polygon fill="#e0e0e0" stroke="#999999" points="1487.5,-74 1410.5,-74 1410.5,-55 1487.5,-55 1487.5,-74"/>
<text text-anchor="middle" x="1449" y="-62" font-family="Helvetica,sans-Serif" font-size="10.00">openssl/sha.h</text>
</a>
</g>
</g>
<!-- Node1&#45;&gt;Node26 -->
<g id="edge83_Node000001_Node000026" class="edge">
<title>Node1&#45;&gt;Node26</title>
<g id="a_edge83_Node000001_Node000026"><a xlink:title=" ">
<path fill="none" stroke="#63b8ff" d="M823.73,-121.68C929.25,-116.5 1180.24,-102.23 1400.2,-74.12"/>
<polygon fill="#63b8ff" stroke="#63b8ff" points="1400.85,-77.56 1410.32,-72.81 1399.95,-70.62 1400.85,-77.56"/>
</a>
</g>
</g>
<!-- Node27 -->
<g id="Node000027" class="node">
<title>Node27</title>
<g id="a_Node000027"><a xlink:title=" ">
<polygon fill="#e0e0e0" stroke="#999999" points="1582,-74 1506,-74 1506,-55 1582,-55 1582,-74"/>
<text text-anchor="middle" x="1544" y="-62" font-family="Helvetica,sans-Serif" font-size="10.00">openssl/evp.h</text>
</a>
</g>
</g>
<!-- Node1&#45;&gt;Node27 -->
<g id="edge84_Node000001_Node000027" class="edge">
<title>Node1&#45;&gt;Node27</title>
<g id="a_edge84_Node000001_Node000027"><a xlink:title=" ">
<path fill="none" stroke="#63b8ff" d="M823.65,-122.42C940.44,-118.36 1237.71,-105.67 1495.89,-74"/>
<polygon fill="#63b8ff" stroke="#63b8ff" points="1496.34,-77.47 1505.83,-72.76 1495.48,-70.52 1496.34,-77.47"/>
</a>
</g>
</g>
<!-- Node3 -->
<g id="Node000003" class="node">
<title>Node3</title>
<g id="a_Node000003"><a xlink:title=" ">
<polygon fill="#e0e0e0" stroke="#999999" points="42.5,-19 1.5,-19 1.5,0 42.5,0 42.5,-19"/>
<text text-anchor="middle" x="22" y="-7" font-family="Helvetica,sans-Serif" font-size="10.00">string</text>
</a>
</g>
</g>
<!-- Node2&#45;&gt;Node3 -->
<g id="edge58_Node000002_Node000003" class="edge">
<title>Node2&#45;&gt;Node3</title>
<g id="a_edge58_Node000002_Node000003"><a xlink:title=" ">
<path fill="none" stroke="#63b8ff" d="M122.72,-54.98C103.33,-46.42 73.19,-33.11 50.93,-23.28"/>
<polygon fill="#63b8ff" stroke="#63b8ff" points="52.19,-20.01 41.63,-19.17 49.36,-26.41 52.19,-20.01"/>
</a>
</g>
</g>
<!-- Node4 -->
<g id="Node000004" class="node">
<title>Node4</title>
<g id="a_Node000004"><a xlink:title=" ">
<polygon fill="#e0e0e0" stroke="#999999" points="107,-19 61,-19 61,0 107,0 107,-19"/>
<text text-anchor="middle" x="84" y="-7" font-family="Helvetica,sans-Serif" font-size="10.00">cstdint</text>
</a>
</g>
</g>
<!-- Node2&#45;&gt;Node4 -->
<g id="edge59_Node000002_Node000004" class="edge">
<title>Node2&#45;&gt;Node4</title>
<g id="a_edge59_Node000002_Node000004"><a xlink:title=" ">
<path fill="none" stroke="#63b8ff" d="M132.68,-54.98C124.19,-47.23 111.44,-35.58 101.12,-26.14"/>
<polygon fill="#63b8ff" stroke="#63b8ff" points="103.23,-23.33 93.49,-19.17 98.51,-28.5 103.23,-23.33"/>
</a>
</g>
</g>
<!-- Node5 -->
<g id="Node000005" class="node">
<title>Node5</title>
<g id="a_Node000005"><a xlink:title=" ">
<polygon fill="#e0e0e0" stroke="#999999" points="183,-19 125,-19 125,0 183,0 183,-19"/>
<text text-anchor="middle" x="154" y="-7" font-family="Helvetica,sans-Serif" font-size="10.00">functional</text>
</a>
</g>
</g>
<!-- Node2&#45;&gt;Node5 -->
<g id="edge60_Node000002_Node000005" class="edge">
<title>Node2&#45;&gt;Node5</title>
<g id="a_edge60_Node000002_Node000005"><a xlink:title=" ">
<path fill="none" stroke="#63b8ff" d="M143.98,-54.75C145.57,-47.72 147.86,-37.62 149.85,-28.84"/>
<polygon fill="#63b8ff" stroke="#63b8ff" points="153.26,-29.62 152.06,-19.09 146.43,-28.07 153.26,-29.62"/>
</a>
</g>
</g>
<!-- Node2&#45;&gt;Node6 -->
<g id="edge61_Node000002_Node000006" class="edge">
<title>Node2&#45;&gt;Node6</title>
<g id="a_edge61_Node000002_Node000006"><a xlink:title=" ">
<path fill="none" stroke="#63b8ff" d="M154.85,-54.98C167.14,-46.84 185.91,-34.41 200.48,-24.76"/>
<polygon fill="#63b8ff" stroke="#63b8ff" points="202.51,-27.61 208.91,-19.17 198.64,-21.78 202.51,-27.61"/>
</a>
</g>
</g>
<!-- Node7&#45;&gt;Node3 -->
<g id="edge63_Node000007_Node000003" class="edge">
<title>Node7&#45;&gt;Node3</title>
<g id="a_edge63_Node000007_Node000003"><a xlink:title=" ">
<path fill="none" stroke="#63b8ff" d="M41.2,-54.75C38.09,-47.57 33.58,-37.18 29.71,-28.27"/>
<polygon fill="#63b8ff" stroke="#63b8ff" points="32.92,-26.87 25.73,-19.09 26.5,-29.66 32.92,-26.87"/>
</a>
</g>
</g>
</g>
</svg>
