<?xml version="1.0" encoding="UTF-8" standalone="no"?>
<!DOCTYPE svg PUBLIC "-//W3C//DTD SVG 1.1//EN"
 "http://www.w3.org/Graphics/SVG/1.1/DTD/svg11.dtd">
<!-- Generated by graphviz version 6.0.2 (20221011.1828)
 -->
<!-- Title: src/LocalSports/header/security_config.h Pages: 1 -->
<svg width="246pt" height="104pt"
 viewBox="0.00 0.00 245.50 104.00" xmlns="http://www.w3.org/2000/svg" xmlns:xlink="http://www.w3.org/1999/xlink">
<g id="graph0" class="graph" transform="scale(1 1) rotate(0) translate(4 100)">
<title>src/LocalSports/header/security_config.h</title>
<!-- Node1 -->
<g id="Node000001" class="node">
<title>Node1</title>
<g id="a_Node000001"><a xlink:title=" ">
<polygon fill="#999999" stroke="#666666" points="173,-96 56,-96 56,-66 173,-66 173,-96"/>
<text text-anchor="start" x="64" y="-84" font-family="Helvetica,sans-Serif" font-size="10.00">src/LocalSports/header</text>
<text text-anchor="middle" x="114.5" y="-73" font-family="Helvetica,sans-Serif" font-size="10.00">/security_config.h</text>
</a>
</g>
</g>
<!-- Node2 -->
<g id="Node000002" class="node">
<title>Node2</title>
<g id="a_Node000002"><a xlink:href="$rasp_8cpp.html" xlink:title=" ">
<polygon fill="white" stroke="#666666" points="101,-30 0,-30 0,0 101,0 101,-30"/>
<text text-anchor="start" x="8" y="-18" font-family="Helvetica,sans-Serif" font-size="10.00">src/LocalSports/src</text>
<text text-anchor="middle" x="50.5" y="-7" font-family="Helvetica,sans-Serif" font-size="10.00">/rasp.cpp</text>
</a>
</g>
</g>
<!-- Node1&#45;&gt;Node2 -->
<g id="edge5_Node000001_Node000002" class="edge">
<title>Node1&#45;&gt;Node2</title>
<g id="a_edge5_Node000001_Node000002"><a xlink:title=" ">
<path fill="none" stroke="#63b8ff" d="M93.15,-58.65C83.77,-49.27 73.03,-38.53 64.66,-30.16"/>
<polygon fill="#63b8ff" stroke="#63b8ff" points="90.75,-61.2 100.3,-65.8 95.7,-56.25 90.75,-61.2"/>
</a>
</g>
</g>
<!-- Node3 -->
<g id="Node000003" class="node">
<title>Node3</title>
<g id="a_Node000003"><a xlink:href="$localsportsapp_8cpp.html" xlink:title=" ">
<polygon fill="white" stroke="#666666" points="237.5,-30 119.5,-30 119.5,0 237.5,0 237.5,-30"/>
<text text-anchor="start" x="127.5" y="-18" font-family="Helvetica,sans-Serif" font-size="10.00">src/LocalSportsapp</text>
<text text-anchor="middle" x="178.5" y="-7" font-family="Helvetica,sans-Serif" font-size="10.00">/src/localsportsapp.cpp</text>
</a>
</g>
</g>
<!-- Node1&#45;&gt;Node3 -->
<g id="edge6_Node000001_Node000003" class="edge">
<title>Node1&#45;&gt;Node3</title>
<g id="a_edge6_Node000001_Node000003"><a xlink:title=" ">
<path fill="none" stroke="#63b8ff" d="M135.85,-58.65C145.23,-49.27 155.97,-38.53 164.34,-30.16"/>
<polygon fill="#63b8ff" stroke="#63b8ff" points="133.3,-56.25 128.7,-65.8 138.25,-61.2 133.3,-56.25"/>
</a>
</g>
</g>
</g>
</svg>
