<?xml version="1.0" encoding="UTF-8" standalone="no"?>
<!DOCTYPE svg PUBLIC "-//W3C//DTD SVG 1.1//EN"
 "http://www.w3.org/Graphics/SVG/1.1/DTD/svg11.dtd">
<!-- Generated by graphviz version 6.0.2 (20221011.1828)
 -->
<!-- Title: src/LocalSports/header/security_layer.h Pages: 1 -->
<svg width="228pt" height="104pt"
 viewBox="0.00 0.00 228.00 104.00" xmlns="http://www.w3.org/2000/svg" xmlns:xlink="http://www.w3.org/1999/xlink">
<g id="graph0" class="graph" transform="scale(1 1) rotate(0) translate(4 100)">
<title>src/LocalSports/header/security_layer.h</title>
<!-- Node1 -->
<g id="Node000001" class="node">
<title>Node1</title>
<g id="a_Node000001"><a xlink:title=" ">
<polygon fill="#999999" stroke="#666666" points="168,-96 51,-96 51,-66 168,-66 168,-96"/>
<text text-anchor="start" x="59" y="-84" font-family="Helvetica,sans-Serif" font-size="10.00">src/LocalSports/header</text>
<text text-anchor="middle" x="109.5" y="-73" font-family="Helvetica,sans-Serif" font-size="10.00">/security_layer.h</text>
</a>
</g>
</g>
<!-- Node2 -->
<g id="Node000002" class="node">
<title>Node2</title>
<g id="a_Node000002"><a xlink:href="$localsports_8cpp.html" xlink:title=" ">
<polygon fill="white" stroke="#666666" points="101,-30 0,-30 0,0 101,0 101,-30"/>
<text text-anchor="start" x="8" y="-18" font-family="Helvetica,sans-Serif" font-size="10.00">src/LocalSports/src</text>
<text text-anchor="middle" x="50.5" y="-7" font-family="Helvetica,sans-Serif" font-size="10.00">/localsports.cpp</text>
</a>
</g>
</g>
<!-- Node1&#45;&gt;Node2 -->
<g id="edge5_Node000001_Node000002" class="edge">
<title>Node1&#45;&gt;Node2</title>
<g id="a_edge5_Node000001_Node000002"><a xlink:title=" ">
<path fill="none" stroke="#63b8ff" d="M89.56,-58.37C80.98,-49.06 71.19,-38.44 63.56,-30.16"/>
<polygon fill="#63b8ff" stroke="#63b8ff" points="87.05,-60.82 96.41,-65.8 92.2,-56.07 87.05,-60.82"/>
</a>
</g>
</g>
<!-- Node3 -->
<g id="Node000003" class="node">
<title>Node3</title>
<g id="a_Node000003"><a xlink:href="$security__layer_8cpp.html" xlink:title=" ">
<polygon fill="white" stroke="#666666" points="220,-30 119,-30 119,0 220,0 220,-30"/>
<text text-anchor="start" x="127" y="-18" font-family="Helvetica,sans-Serif" font-size="10.00">src/LocalSports/src</text>
<text text-anchor="middle" x="169.5" y="-7" font-family="Helvetica,sans-Serif" font-size="10.00">/security_layer.cpp</text>
</a>
</g>
</g>
<!-- Node1&#45;&gt;Node3 -->
<g id="edge6_Node000001_Node000003" class="edge">
<title>Node1&#45;&gt;Node3</title>
<g id="a_edge6_Node000001_Node000003"><a xlink:title=" ">
<path fill="none" stroke="#63b8ff" d="M129.78,-58.37C138.51,-49.06 148.46,-38.44 156.22,-30.16"/>
<polygon fill="#63b8ff" stroke="#63b8ff" points="127.1,-56.11 122.82,-65.8 132.21,-60.89 127.1,-56.11"/>
</a>
</g>
</g>
</g>
</svg>
